<svg preserveAspectRatio="none" width="100%" height="100%" overflow="visible" style="display: block;" viewBox="0 0 72.0494 18" fill="none" xmlns="http://www.w3.org/2000/svg">
<g id="Group 35116">
<g id="Group 1410119210">
<path id="Vector" opacity="0.5" d="M12.1378 17.3483C13.6893 15.7969 12.3757 11.9679 9.20389 8.79609C6.03206 5.62427 2.2031 4.31069 0.651654 5.86213C-0.899787 7.41357 0.413793 11.2425 3.58562 14.4143C6.75744 17.5862 10.5864 18.8997 12.1378 17.3483Z" fill="var(--fill-0, #3B0FFE)"/>
<path id="Vector_2" opacity="0.7" d="M15.6074 15.8252C17.3571 14.0756 15.7682 9.64995 12.0586 5.94031C8.34894 2.23068 3.92329 0.641818 2.17362 2.39149C0.423955 4.14115 2.01282 8.56679 5.72246 12.2764C9.4321 15.986 13.8577 17.5749 15.6074 15.8252Z" fill="var(--fill-0, #3B0FFE)"/>
<path id="Vector_3" opacity="0.8" d="M17.3479 12.1378C18.8994 10.5864 17.5858 6.75743 14.414 3.58561C11.2422 0.413792 7.41319 -0.899786 5.86175 0.651653C4.31031 2.20309 5.62389 6.03205 8.79571 9.20387C11.9675 12.3757 15.7965 13.6893 17.3479 12.1378Z" fill="var(--fill-0, #3B0FFE)"/>
</g>
<g id="Vector_4">
<path d="M40.6808 15.4413C39.9328 15.4413 39.3117 15.3147 38.8172 15.0615C38.3223 14.8084 37.9549 14.4706 37.7136 14.0485C37.4722 13.6264 37.3516 13.1683 37.3516 12.6734C37.3516 12.0943 37.4993 11.5939 37.7948 11.1718C38.0903 10.7497 38.5277 10.4212 39.1064 10.1858C39.6855 9.95045 40.3967 9.83319 41.2413 9.83319H43.5388C43.5388 9.35099 43.4724 8.94966 43.3399 8.63003C43.2069 8.3104 43.002 8.07248 42.7247 7.91542C42.447 7.75878 42.0914 7.68003 41.6575 7.68003C41.1626 7.68003 40.7409 7.7918 40.3912 8.0149C40.0411 8.23801 39.824 8.5788 39.7401 9.03687H37.6052C37.6776 8.38576 37.8947 7.82778 38.2563 7.36337C38.6182 6.89938 39.0975 6.53741 39.6944 6.2779C40.2913 6.01881 40.9454 5.88884 41.6575 5.88884C42.5139 5.88884 43.2433 6.03659 43.8466 6.33209C44.4495 6.62759 44.9109 7.04967 45.2306 7.59833C45.5502 8.14741 45.7098 8.80783 45.7098 9.5796V15.2241H43.8644L43.6472 13.7585C43.5266 13.9998 43.3729 14.2229 43.1858 14.4278C42.9987 14.6331 42.7844 14.8109 42.5436 14.9616C42.3022 15.1128 42.0279 15.23 41.7206 15.3143C41.4132 15.3985 41.0661 15.4409 40.6804 15.4409L40.6808 15.4413ZM41.1694 13.7225C41.519 13.7225 41.8298 13.659 42.1011 13.5324C42.3725 13.4058 42.6079 13.2251 42.8069 12.9897C43.0058 12.7543 43.1595 12.4922 43.2683 12.2027C43.3771 11.9131 43.4491 11.6057 43.4855 11.2802V11.2438H41.4771C41.0546 11.2438 40.7049 11.298 40.4276 11.4068C40.1499 11.5152 39.951 11.6633 39.8307 11.85C39.7101 12.0371 39.65 12.2569 39.65 12.5104C39.65 12.764 39.7101 12.9808 39.8307 13.1616C39.951 13.3423 40.1262 13.4812 40.3553 13.5777C40.5843 13.6742 40.8557 13.7225 41.1694 13.7225Z" fill="var(--fill-0, #1E1E1E)"/>
<path d="M50.0288 15.4413C49.2807 15.4413 48.6597 15.3147 48.1652 15.0615C47.6703 14.8084 47.3029 14.4706 47.0615 14.0485C46.8202 13.6264 46.6996 13.1683 46.6996 12.6734C46.6996 12.0943 46.8473 11.5939 47.1428 11.1718C47.4383 10.7497 47.8756 10.4212 48.4544 10.1858C49.0335 9.95045 49.7447 9.83319 50.5893 9.83319H52.8868C52.8868 9.35099 52.8204 8.94966 52.6879 8.63003C52.5549 8.3104 52.35 8.07248 52.0727 7.91542C51.795 7.75878 51.4394 7.68003 51.0055 7.68003C50.5106 7.68003 50.0889 7.7918 49.7392 8.0149C49.3891 8.23801 49.1719 8.5788 49.0881 9.03687H46.9532C47.0256 8.38576 47.2427 7.82778 47.6043 7.36337C47.9662 6.89938 48.4455 6.53741 49.0424 6.2779C49.6393 6.01881 50.2934 5.88884 51.0055 5.88884C51.8619 5.88884 52.5913 6.03659 53.1946 6.33209C53.7975 6.62759 54.2589 7.04967 54.5785 7.59833C54.8982 8.14741 55.0578 8.80783 55.0578 9.5796V15.2241H53.2124L52.9952 13.7585C52.8746 13.9998 52.7209 14.2229 52.5338 14.4278C52.3466 14.6331 52.1324 14.8109 51.8915 14.9616C51.6502 15.1128 51.3759 15.23 51.0685 15.3143C50.7612 15.3985 50.414 15.4409 50.0284 15.4409L50.0288 15.4413ZM50.5173 13.7225C50.867 13.7225 51.1778 13.659 51.4491 13.5324C51.7205 13.4058 51.9559 13.2251 52.1549 12.9897C52.3538 12.7543 52.5075 12.4922 52.6163 12.2027C52.7251 11.9131 52.7971 11.6057 52.8335 11.2802V11.2438H50.8251C50.4026 11.2438 50.0529 11.298 49.7756 11.4068C49.4979 11.5152 49.2989 11.6633 49.1787 11.85C49.0581 12.0371 48.9979 12.2569 48.9979 12.5104C48.9979 12.764 49.0581 12.9808 49.1787 13.1616C49.2989 13.3423 49.4742 13.4812 49.7032 13.5777C49.9323 13.6742 50.2036 13.7225 50.5173 13.7225Z" fill="var(--fill-0, #1E1E1E)"/>
<path d="M61.4796 7.93362V6.10602H59.0013V3.70013H57.0835L56.8299 6.10602H55.2741V7.93362H58.075V8.22488C58.075 8.22488 58.0542 8.22742 58.0178 8.2342C57.3261 8.36374 56.8303 8.9759 56.8303 9.67951V12.1671C56.8303 12.9262 56.9569 13.5294 57.2105 13.9765C57.4641 14.4223 57.8163 14.7423 58.2689 14.9345C58.7202 15.128 59.2549 15.2237 59.8696 15.2237H61.4254V13.3787H60.3035C59.8323 13.3787 59.4983 13.2911 59.2993 13.1163C59.0999 12.9423 59.0009 12.6256 59.0009 12.1671V7.93362H61.4796Z" fill="var(--fill-0, #1E1E1E)"/>
<path d="M62.4757 15.2241V13.4693L67.1978 7.91499H62.5481V6.10602H69.6942V7.8608L64.918 13.4329H69.7848V15.2241H62.4757Z" fill="var(--fill-0, #1E1E1E)"/>
<path d="M36.3969 2.56005V2.55963H34.1879L29.9531 12.6671H29.6318L25.3822 2.55963H23.1719V15.2237H23.1867V15.2241H25.3577V7.85234L28.2546 14.7402H31.3328L34.226 7.83456V15.2237H34.2408V15.2241H36.4118V2.56005H36.3969Z" fill="var(--fill-0, #1E1E1E)"/>
<path d="M71.1218 15.2902C70.9939 15.2902 70.8741 15.266 70.7615 15.2182C70.6493 15.1699 70.5507 15.1035 70.4652 15.0179C70.3796 14.9328 70.3132 14.8338 70.2645 14.722C70.2162 14.6098 70.1921 14.49 70.193 14.3613C70.1934 14.2331 70.2179 14.1128 70.2662 14.0006C70.3145 13.8884 70.3809 13.7898 70.466 13.7047C70.5511 13.6196 70.6497 13.5527 70.7615 13.5045C70.8733 13.4566 70.9931 13.4325 71.1209 13.4325C71.2488 13.4325 71.3699 13.4566 71.4821 13.5045C71.5942 13.5527 71.6925 13.6192 71.7776 13.7047C71.8622 13.7898 71.9287 13.8889 71.9765 14.0006C72.0248 14.1124 72.0489 14.2326 72.0493 14.3613C72.0498 14.4896 72.0261 14.6098 71.9782 14.722C71.93 14.8338 71.8635 14.9324 71.7784 15.0179C71.6937 15.103 71.5947 15.1699 71.4821 15.2182C71.3694 15.266 71.2488 15.2902 71.1205 15.2902H71.1218ZM71.1218 15.0273C71.2141 15.0273 71.3 15.0099 71.3809 14.9752C71.4613 14.9409 71.5324 14.8931 71.5934 14.8325C71.6544 14.772 71.7022 14.7013 71.7361 14.6208C71.7704 14.5404 71.7873 14.454 71.7864 14.3626C71.7864 14.2703 71.7691 14.1844 71.7348 14.1035C71.7001 14.0231 71.6527 13.9524 71.5921 13.891C71.5316 13.83 71.4609 13.7822 71.3804 13.7479C71.3004 13.7132 71.2141 13.6958 71.1218 13.6958C71.0295 13.6958 70.9444 13.7132 70.8644 13.7479C70.784 13.7826 70.7133 13.8304 70.6523 13.891C70.5913 13.9519 70.5435 14.0226 70.5092 14.1035C70.4745 14.1839 70.4571 14.2703 70.4563 14.3626C70.4563 14.4536 70.4732 14.5391 70.5075 14.6196C70.5418 14.7 70.5896 14.7711 70.6502 14.8321C70.7107 14.8931 70.7818 14.9409 70.8627 14.9752C70.9431 15.0099 71.0299 15.0273 71.1218 15.0273ZM70.6239 14.3618C70.6239 14.269 70.6464 14.1844 70.6921 14.1082C70.7374 14.0315 70.7983 13.9706 70.875 13.9253C70.9516 13.88 71.0363 13.8571 71.1286 13.8571C71.2094 13.8571 71.2843 13.8745 71.3534 13.91C71.4224 13.9452 71.4791 13.9934 71.524 14.054C71.5688 14.1149 71.5959 14.1839 71.6061 14.2606H71.3606C71.3508 14.2106 71.3237 14.17 71.2797 14.1386C71.2357 14.1073 71.1853 14.0917 71.1286 14.0917C71.0794 14.0917 71.0346 14.1039 70.9935 14.1281C70.9529 14.1526 70.9203 14.1848 70.8961 14.2254C70.8716 14.2665 70.8597 14.3114 70.8597 14.3605C70.8597 14.4096 70.872 14.4557 70.8961 14.4968C70.9207 14.5379 70.9529 14.5705 70.9935 14.5946C71.0346 14.6191 71.0794 14.631 71.1286 14.631C71.1853 14.631 71.234 14.6153 71.2746 14.584C71.3148 14.5527 71.3402 14.512 71.35 14.4621H71.5951C71.5854 14.5391 71.5587 14.6077 71.5155 14.6687C71.4727 14.7296 71.4177 14.7779 71.3508 14.813C71.2839 14.8482 71.2098 14.8655 71.1286 14.8655C71.0363 14.8655 70.9516 14.8431 70.875 14.7974C70.7988 14.7521 70.7374 14.6911 70.6921 14.6145C70.6464 14.5379 70.6239 14.4532 70.6239 14.3609V14.3618Z" fill="var(--fill-0, #1E1E1E)"/>
</g>
</g>
</svg>
