<svg preserveAspectRatio="none" width="100%" height="100%" overflow="visible" style="display: block;" viewBox="0 0 103.016 21.4971" fill="none" xmlns="http://www.w3.org/2000/svg">
<g id="Group">
<path id="Vector" d="M2.78093 4.90731L7.69586 20.2755H8.08233L13.0939 4.90731H15.8412L10.3466 21.1761H5.43163L0 4.90731H2.78093Z" fill="var(--fill-0, #1C51C6)"/>
<path id="Vector_2" d="M18.9624 6.20815C20.2436 5.12829 21.9324 4.58627 24.0202 4.58627C28.8259 4.58627 31.2287 6.69179 31.2287 10.907V17.6446C31.2287 18.0074 31.2917 18.2617 31.422 18.3993C31.5522 18.5369 31.7664 18.6078 32.0689 18.6078H32.7158V21.1761H31.2623C30.4852 21.1761 29.8761 20.9259 29.435 20.4214C28.9939 19.9211 28.7713 19.2707 28.7713 18.4785V17.3861H28.4814L28.4184 17.9949C28.2672 19.0664 27.6202 19.9169 26.4776 20.5465C25.335 21.1761 24.0202 21.4929 22.5331 21.4929C20.8108 21.4929 19.4077 21.0593 18.3323 20.1921C17.2527 19.3249 16.715 18.1325 16.715 16.6148C16.715 15.0096 17.3115 13.8339 18.5087 13.0834C19.7059 12.3329 21.3149 11.941 23.3438 11.8951C25.2636 11.8326 26.6289 11.7284 27.448 11.5908C28.2672 11.4532 28.6746 11.1363 28.6746 10.6443C28.6746 9.48942 28.2966 8.57633 27.5446 7.9009C26.7885 7.22547 25.6585 6.89192 24.1504 6.89192C21.3275 6.89192 19.7858 8.17607 19.5295 10.7402H16.9418C17.0048 8.79314 17.6812 7.27967 18.9624 6.19981V6.20815ZM20.2562 18.4827C20.9116 18.9538 21.7811 19.1873 22.8565 19.1873C23.8269 19.1873 24.7595 19.0289 25.6543 18.7078C26.549 18.3868 27.2758 17.9282 27.8345 17.3278C28.3932 16.7274 28.6746 16.0353 28.6746 15.2431V12.0661H28.4142L28.3806 12.4205C28.2924 12.804 28.0529 13.1167 27.6539 13.3502C27.2548 13.5879 26.7423 13.7255 26.1164 13.7672C25.7089 13.8089 24.9317 13.8839 23.7891 13.9923L22.5625 14.0882C20.3655 14.28 19.2649 15.1055 19.2649 16.5606C19.2649 17.3736 19.5925 18.0157 20.2521 18.4869L20.2562 18.4827Z" fill="var(--fill-0, #1C51C6)"/>
<path id="Vector_3" d="M37.1939 4.90731V9.81463H37.5173L37.5803 9.0433C37.6896 7.71745 38.2693 6.64176 39.3279 5.8204C40.3823 4.99904 41.7433 4.58627 43.4026 4.58627C45.4484 4.60712 46.9607 5.195 47.9269 6.3499C48.8973 7.50481 49.3804 9.07665 49.3804 11.0654V21.1719H46.8263V11.4824C46.8263 9.98557 46.4818 8.88903 45.7929 8.19275C45.104 7.49647 44.058 7.15042 42.6591 7.15042C40.9578 7.15042 39.6219 7.67992 38.6515 8.73894C37.6812 9.79795 37.1981 11.2489 37.1981 13.0876V21.1719H34.644V4.90731H37.1981H37.1939Z" fill="var(--fill-0, #1C51C6)"/>
<path id="Vector_4" d="M50.8381 7.37973V4.90731H53.0687C53.5014 4.90731 53.8164 4.77389 54.0223 4.50706C54.2281 4.24022 54.3289 3.78576 54.3289 3.14368L54.3625 0H57.1435L57.1099 2.82264C57.1099 3.44387 56.9418 3.88165 56.61 4.14015C56.2739 4.39865 55.7866 4.55709 55.1397 4.61963L54.7532 4.65298V4.91148H61.7685V7.3839H56.9208V16.9775C56.9208 17.6196 57.1435 18.1325 57.5845 18.516C58.0256 18.8996 58.5717 19.1039 59.2187 19.1248C60.0588 19.1248 60.7688 18.8996 61.3527 18.4493L62.3567 20.6299C61.9702 20.8884 61.4871 21.0969 60.92 21.2553C60.3487 21.4137 59.7522 21.4971 59.1262 21.4971C57.5971 21.4971 56.4041 21.0969 55.5556 20.2922C54.7028 19.4917 54.2785 18.4702 54.2785 17.2277V7.37556H50.8507L50.8381 7.37973Z" fill="var(--fill-0, #1C51C6)"/>
<path id="Vector_5" d="M64.079 0H66.6961V2.856H64.079V0ZM66.6961 4.90731V21.1761H64.079V4.90731H66.6961Z" fill="var(--fill-0, #1C51C6)"/>
<path id="Vector_6" d="M83.8689 18.4493C83.18 19.4124 82.2726 20.1588 81.1552 20.6966C80.0336 21.2303 78.828 21.4971 77.5341 21.4971C75.8748 21.4971 74.3919 21.1928 73.0897 20.584C71.7874 19.9753 70.7498 19.033 69.9853 17.7614C69.2208 16.4897 68.8385 14.9221 68.8385 13.0625C68.8385 11.4573 69.1661 10.0148 69.8257 8.7306C70.481 7.44644 71.4472 6.43746 72.72 5.69949C73.9929 4.96151 75.501 4.59044 77.2443 4.59044C78.6011 4.59044 79.8614 4.8406 81.025 5.34509C82.1886 5.84958 83.1254 6.57505 83.8395 7.52566C84.5495 8.47627 84.9275 9.59365 84.9695 10.8778H82.4155C82.2852 9.63951 81.7307 8.66389 80.752 7.95927C79.7732 7.25465 78.5591 6.90026 77.1141 6.90026C76.1017 6.90026 75.1649 7.14208 74.2995 7.62155C73.4384 8.10103 72.741 8.81398 72.2159 9.75625C71.6866 10.6985 71.422 11.8076 71.422 13.0917C71.422 14.3759 71.6908 15.4766 72.2285 16.398C72.7662 17.3194 73.4762 18.0115 74.3625 18.4827C75.2447 18.9538 76.2151 19.1873 77.2737 19.1873C78.6516 19.1873 79.8278 18.8162 80.7982 18.0783C81.7685 17.3403 82.3189 16.373 82.4449 15.1764H84.9654C84.9233 16.3938 84.5579 17.4862 83.8647 18.4493H83.8689Z" fill="var(--fill-0, #1C51C6)"/>
<path id="Vector_7" d="M100.79 19.2332C99.3027 20.6758 97.3073 21.397 94.8078 21.397C93.1905 21.397 91.7706 21.076 90.5398 20.4339C89.3132 19.7919 88.3512 18.8412 87.6623 17.5779C86.9733 16.3146 86.6289 14.7845 86.6289 12.9917C86.6289 10.2983 87.3766 8.22194 88.8763 6.76684C90.376 5.31174 92.3504 4.58627 94.8078 4.58627C97.2653 4.58627 99.3531 5.32425 100.819 6.80019C102.285 8.27614 103.016 10.34 103.016 12.9917C103.016 15.6434 102.273 17.7906 100.786 19.2332H100.79ZM98.9288 8.55132C97.9458 7.4923 96.5722 6.9628 94.8078 6.9628C93.0435 6.9628 91.7244 7.50481 90.733 8.58467C89.7417 9.66453 89.246 11.1363 89.246 12.9958C89.246 14.8554 89.7206 16.4272 90.67 17.457C91.6194 18.4827 92.9973 18.9955 94.8078 18.9955C96.6184 18.9955 97.9752 18.4785 98.9456 17.4403C99.916 16.4022 100.399 14.9221 100.399 12.9958C100.399 11.0696 99.9076 9.61033 98.9288 8.55132Z" fill="var(--fill-0, #1C51C6)"/>
</g>
</svg>
