<svg preserveAspectRatio="none" width="100%" height="100%" overflow="visible" style="display: block;" viewBox="0 0 2.113 2.10135" fill="none" xmlns="http://www.w3.org/2000/svg">
<g id="Group">
<path id="Vector" d="M2.04579 0.63374C1.99118 0.50866 1.91976 0.396087 1.82315 0.300193C1.72653 0.204298 1.61731 0.12925 1.48709 0.0792177C1.35686 0.0250163 1.21824 0 1.06701 0C0.915778 0 0.777151 0.0250163 0.646927 0.0792177C0.516702 0.133419 0.403281 0.208467 0.306663 0.304362C0.210045 0.400257 0.134427 0.512829 0.0798162 0.637909C0.0252058 0.767159 0 0.900578 0 1.05067C0 1.20077 0.0252058 1.33419 0.0798162 1.46344C0.134427 1.58852 0.20584 1.70109 0.302458 1.79699C0.399076 1.89288 0.512506 1.96793 0.63853 2.02213C0.768754 2.07633 0.907377 2.10135 1.0544 2.10135C1.20143 2.10135 1.34426 2.07633 1.47028 2.02213C1.5963 1.96793 1.70973 1.89288 1.80635 1.79699C1.90297 1.70109 1.97857 1.58852 2.03318 1.45927C2.0878 1.33002 2.113 1.19243 2.113 1.04233C2.113 0.892239 2.0878 0.754651 2.03318 0.62957L2.04579 0.63374ZM1.88617 1.39673C1.83996 1.50513 1.77694 1.60103 1.69713 1.68024C1.61731 1.75946 1.52069 1.822 1.41567 1.86786C1.30645 1.91373 1.18883 1.93874 1.0628 1.93874C0.936778 1.93874 0.823362 1.9179 0.714141 1.87203C0.60492 1.82617 0.512497 1.76363 0.432682 1.68441C0.352867 1.6052 0.289854 1.5093 0.247846 1.4009C0.205838 1.2925 0.184836 1.17575 0.184836 1.05067C0.184836 0.925594 0.205838 0.808852 0.247846 0.700449C0.289854 0.592046 0.352867 0.500321 0.432682 0.416934C0.512497 0.337717 0.60492 0.271007 0.714141 0.225144C0.823362 0.179282 0.940987 0.158435 1.07121 0.158435C1.20144 0.158435 1.31486 0.179282 1.42408 0.225144C1.5333 0.271007 1.62571 0.329378 1.70552 0.408595C1.78534 0.487813 1.84415 0.579538 1.89036 0.687941C1.93237 0.796344 1.95757 0.913085 1.95757 1.03817C1.95757 1.16325 1.93657 1.27999 1.89036 1.38839L1.88617 1.39673Z" fill="var(--fill-0, #1C51C6)"/>
<path id="Vector_2" d="M1.39047 1.21745C1.39047 1.21745 1.40727 1.20911 1.41988 1.20494C1.44088 1.1966 1.46189 1.18826 1.47869 1.17575C1.56271 1.10904 1.60471 1.01315 1.60471 0.8839C1.60471 0.754651 1.56271 0.667094 1.47869 0.596216C1.39468 0.525337 1.26865 0.487813 1.11742 0.487813H0.630123V1.60937H0.907378V1.27582H1.12583C1.12583 1.27582 1.13002 1.27582 1.13422 1.27582H1.14262L1.36107 1.60937H1.62992L1.37786 1.22579L1.39888 1.21745H1.39047ZM1.26865 1.02983C1.22664 1.06318 1.16783 1.07986 1.09221 1.07986H0.894776V0.683772H1.09221C1.16783 0.683772 1.22664 0.700449 1.26865 0.733804C1.31066 0.771328 1.33587 0.817191 1.33587 0.8839C1.33587 0.95061 1.31486 0.992303 1.26865 1.02983Z" fill="var(--fill-0, #1C51C6)"/>
</g>
</svg>
