<svg preserveAspectRatio="none" width="100%" height="100%" overflow="visible" style="display: block;" viewBox="0 0 20 18" fill="none" xmlns="http://www.w3.org/2000/svg">
<g id="image 31 [Vectorized]" clip-path="url(#clip0_0_20)">
<path id="Union" d="M10.464 0C10.5851 0.0287439 10.711 0.0391485 10.8283 0.0703125C11.1594 0.15834 11.4712 0.408911 11.6505 0.696289C11.8597 1.03569 11.9252 1.44305 11.8332 1.83008C11.7425 2.20818 11.5016 2.5342 11.1652 2.73438C11.0478 2.80423 10.9377 2.85099 10.8097 2.89941C10.8443 3.04413 10.8653 3.21975 10.8878 3.36914C10.9267 3.61767 10.9634 3.86696 10.9972 4.11621L11.2218 5.66895C11.252 5.8752 11.2992 6.29385 11.3468 6.47949C11.9761 6.62123 12.4199 6.86583 12.7951 7.41699C12.871 7.52841 12.9655 7.71071 12.9982 7.83789C13.1897 7.76904 13.6488 7.68252 13.8654 7.63574L15.2453 7.33105L16.7443 6.99805C16.96 6.95092 17.218 6.88811 17.4318 6.85352C17.4193 6.68438 17.4972 6.38692 17.6222 6.26758C17.7496 6.06844 17.9788 5.9337 18.2082 5.88379C18.4787 5.82224 18.7631 5.87336 18.9943 6.02539C19.2176 6.17025 19.3722 6.39856 19.422 6.6582C19.5289 7.19913 19.171 7.72878 18.6212 7.82812C18.3539 7.87626 18.078 7.81734 17.8546 7.66406C17.7675 7.60353 17.6581 7.49746 17.6037 7.40723C17.5662 7.36008 17.5498 7.32131 17.5236 7.26758C17.3976 7.31355 17.1423 7.36264 16.9982 7.39453L15.9816 7.61621L14.3302 7.9834C13.9434 8.07105 13.5001 8.18121 13.1115 8.24805C13.1871 8.97947 12.9357 9.76992 12.299 10.1963C12.5132 10.4586 12.7199 10.7529 12.922 11.0254L13.921 12.3721C14.5895 13.2772 15.3053 14.2046 15.9543 15.1191C16.2793 14.9311 16.6768 14.9093 17.0402 14.9951C17.1914 15.0309 17.5335 15.1902 17.63 15.3154C17.9127 15.5349 18.0649 15.8749 18.1173 16.2217C18.1846 16.6658 18.0051 17.225 17.6398 17.5107C17.378 17.7182 17.1551 17.8382 16.8156 17.8779C16.42 17.9264 16.0211 17.8136 15.7111 17.5654C15.421 17.3344 15.1927 16.9506 15.1544 16.5811C15.1028 16.08 15.2821 15.7394 15.588 15.3633C15.4089 15.1444 15.1983 14.8435 15.0275 14.6123L14.089 13.3477C13.3775 12.3881 12.6143 11.3951 11.924 10.4258C11.6121 10.6074 11.1274 10.6519 10.7726 10.6133C10.169 10.5475 9.73269 10.2669 9.35171 9.81934C9.24175 9.8862 8.98708 9.99273 8.86148 10.0488C8.5955 10.1677 8.31237 10.3011 8.04214 10.4082L7.72476 10.5566C7.58139 10.62 7.43379 10.6834 7.38296 10.7061L5.84488 11.3896L3.41812 12.4697C2.98369 12.6642 2.47555 12.9062 2.03726 13.0801C2.04974 13.4008 2.00589 13.647 1.78042 13.8965C1.59169 14.1052 1.33868 14.1823 1.06265 14.1914C0.977272 14.1942 0.819615 14.189 0.739409 14.1572C0.459103 14.1264 0.209251 13.8878 0.101714 13.6396C-0.0159539 13.3611 -0.0164132 13.0477 0.0997608 12.7686C0.198487 12.5335 0.362589 12.3707 0.598784 12.2744C0.657452 12.2572 0.721096 12.2423 0.787261 12.2314C0.886548 12.2152 0.991372 12.2072 1.09292 12.2129C1.19446 12.2186 1.29279 12.2377 1.37906 12.2744C1.42774 12.1778 1.61522 11.9342 1.68667 11.8408C1.88013 11.5929 2.07222 11.3435 2.26187 11.0928L5.00796 7.47461L7.5148 4.16602C7.71911 3.89814 7.92269 3.62935 8.12417 3.35938C8.19378 3.26619 8.39366 2.98741 8.465 2.9209C8.49328 2.87249 8.53382 2.8158 8.57632 2.75977L9.05484 2.14453C9.00593 2.04093 8.97305 1.96317 8.94253 1.85059C8.84046 1.47658 8.89365 1.0773 9.09 0.742188C9.27114 0.437396 9.5712 0.178874 9.91714 0.0732422C10.0274 0.0395952 10.1625 0.0334108 10.2785 0.00292969L10.2902 0H10.464ZM8.44058 3.5293C8.32681 3.6803 8.10884 3.98992 7.99039 4.12012C7.96062 4.17695 7.81258 4.36223 7.76675 4.42188L7.32144 5.00488L5.83121 6.96875L2.90054 10.8281L2.11832 11.8594C1.98054 12.0412 1.8294 12.2499 1.68472 12.4238C1.76454 12.5019 1.87204 12.5882 1.90933 12.6885L1.92886 12.6963C2.26512 12.5422 2.60198 12.3894 2.9396 12.2383C3.2772 12.0872 3.61531 11.9372 3.95425 11.7891L6.51675 10.6465L7.8107 10.0684C7.88577 10.0346 8.31497 9.83663 8.36734 9.82422C8.62296 9.70982 8.88382 9.58544 9.14273 9.48145C8.47713 8.13876 9.37803 6.54428 10.8878 6.4668C10.836 6.23355 10.7847 5.80567 10.7482 5.55762C10.6644 4.95552 10.5783 4.35318 10.4884 3.75195C10.4499 3.4908 10.4147 3.2041 10.3673 2.94727C10.0344 2.98606 9.45941 2.72504 9.25894 2.45312L8.44058 3.5293Z" fill="var(--fill-0, white)"/>
</g>
<defs>
<clipPath id="clip0_0_20">
<rect width="20" height="18" fill="white"/>
</clipPath>
</defs>
</svg>
