<svg preserveAspectRatio="none" width="100%" height="100%" overflow="visible" style="display: block;" viewBox="0 0 16 16" fill="none" xmlns="http://www.w3.org/2000/svg">
<g id="lucide/fingerprint-pattern" clip-path="url(#clip0_0_17)">
<path id="Vector" d="M8 6.66667C7.64638 6.66667 7.30724 6.80714 7.05719 7.05719C6.80714 7.30724 6.66667 7.64638 6.66667 8C6.66667 8.68 6.6 9.67333 6.49333 10.6667M9.33333 8.74667C9.33333 10.3333 9.33333 13 8.66667 14.6667M11.5267 14.0133C11.6067 13.6133 11.8133 12.48 11.86 12M1.33333 8C1.33333 6.60078 1.77358 5.23703 2.59172 4.10193C3.40986 2.96683 4.5644 2.11792 5.89182 1.67544C7.21923 1.23297 8.65221 1.21938 9.98778 1.63658C11.3234 2.05378 12.4938 2.88063 13.3333 4M1.33333 10.6667H1.34M14.5333 10.6667C14.6667 9.33333 14.6207 7.09733 14.5333 6.66667M3.33333 13C3.66667 12 4 10 4 8C3.99933 7.54591 4.07598 7.09502 4.22667 6.66667M5.76667 14.6667C5.90667 14.2267 6.06667 13.7867 6.14667 13.3333M6 4.53333C6.60827 4.18215 7.29828 3.99732 8.00064 3.99743C8.70301 3.99755 9.39296 4.1826 10.0011 4.53397C10.6093 4.88535 11.1142 5.39067 11.4651 5.9991C11.816 6.60753 12.0005 7.29764 12 8V9.33333" stroke="var(--stroke-0, white)" stroke-width="1.33333" stroke-linecap="round" stroke-linejoin="round"/>
</g>
<defs>
<clipPath id="clip0_0_17">
<rect width="16" height="16" fill="white"/>
</clipPath>
</defs>
</svg>
