<svg preserveAspectRatio="none" width="100%" height="100%" overflow="visible" style="display: block;" viewBox="0 0 20 20" fill="none" xmlns="http://www.w3.org/2000/svg">
<g id="lucide/earth-lock" clip-path="url(#clip0_0_13)">
<path id="Vector" d="M5.83333 2.78333V4.16667C5.83333 4.82971 6.09673 5.46559 6.56557 5.93443C7.03441 6.40327 7.67029 6.66667 8.33333 6.66667M9.16667 18.2917V15C9.16667 14.558 8.99107 14.134 8.67851 13.8215C8.36595 13.5089 7.94203 13.3333 7.5 13.3333C7.05797 13.3333 6.63405 13.1577 6.32149 12.8452C6.00893 12.5326 5.83333 12.1087 5.83333 11.6667V10.8333C5.83333 10.3913 5.65774 9.96738 5.34518 9.65482C5.03262 9.34226 4.60869 9.16667 4.16667 9.16667H1.70833M12.5 17.95V14.1667C12.5 13.7246 12.6756 13.3007 12.9882 12.9882C13.3007 12.6756 13.7246 12.5 14.1667 12.5H17.95C17.4879 13.9692 16.6278 15.2817 15.4649 16.2916C14.3021 17.3016 12.8821 17.9695 11.3627 18.2213C9.84319 18.473 8.28368 18.2987 6.85726 17.7178C5.43084 17.1369 4.19333 16.172 3.28211 14.9303C2.37089 13.6886 1.82161 12.2186 1.69526 10.6836C1.56891 9.14864 1.87043 7.60866 2.56635 6.23467C3.26226 4.86067 4.32534 3.70642 5.63757 2.90005C6.94979 2.09369 8.45982 1.66676 10 1.66667M16.6667 5V3.33333C16.6667 2.89131 16.4911 2.46738 16.1785 2.15482C15.866 1.84226 15.442 1.66667 15 1.66667C14.558 1.66667 14.134 1.84226 13.8215 2.15482C13.5089 2.46738 13.3333 2.89131 13.3333 3.33333V5M12.5 5H17.5C17.9602 5 18.3333 5.3731 18.3333 5.83333V8.33333C18.3333 8.79357 17.9602 9.16667 17.5 9.16667H12.5C12.0398 9.16667 11.6667 8.79357 11.6667 8.33333V5.83333C11.6667 5.3731 12.0398 5 12.5 5Z" stroke="var(--stroke-0, #303030)" stroke-width="2" stroke-linecap="round" stroke-linejoin="round"/>
</g>
<defs>
<clipPath id="clip0_0_13">
<rect width="20" height="20" fill="white"/>
</clipPath>
</defs>
</svg>
