<svg preserveAspectRatio="none" width="100%" height="100%" overflow="visible" style="display: block;" viewBox="0 0 20 20" fill="none" xmlns="http://www.w3.org/2000/svg">
<g id="lucide/cog" clip-path="url(#clip0_0_136)">
<g id="Vector">
<path d="M9.16667 8.55833L5.83333 2.78333M9.16667 11.4417L5.83333 17.2167M10 18.3333V16.6667M10 16.6667C13.6819 16.6667 16.6667 13.6819 16.6667 10C16.6667 6.3181 13.6819 3.33333 10 3.33333M10 16.6667C6.3181 16.6667 3.33333 13.6819 3.33333 10M10 1.66667V3.33333M10 3.33333C6.3181 3.33333 3.33333 6.3181 3.33333 10M11.6667 10H18.3333M11.6667 10C11.6667 10.9205 10.9205 11.6667 10 11.6667C9.07953 11.6667 8.33333 10.9205 8.33333 10C8.33333 9.07953 9.07953 8.33333 10 8.33333C10.9205 8.33333 11.6667 9.07953 11.6667 10ZM14.1667 17.2167L13.3333 15.775M14.1667 2.78333L13.3333 4.225M1.66667 10H3.33333M17.2167 14.1667L15.775 13.3333M17.2167 5.83333L15.775 6.66667M2.78333 14.1667L4.225 13.3333M2.78333 5.83333L4.225 6.66667" stroke="var(--stroke-0, #484F62)" stroke-width="1.66667" stroke-linecap="round" stroke-linejoin="round"/>
<path d="M9.16667 8.55833L5.83333 2.78333M9.16667 11.4417L5.83333 17.2167M10 18.3333V16.6667M10 16.6667C13.6819 16.6667 16.6667 13.6819 16.6667 10C16.6667 6.3181 13.6819 3.33333 10 3.33333M10 16.6667C6.3181 16.6667 3.33333 13.6819 3.33333 10M10 1.66667V3.33333M10 3.33333C6.3181 3.33333 3.33333 6.3181 3.33333 10M11.6667 10H18.3333M11.6667 10C11.6667 10.9205 10.9205 11.6667 10 11.6667C9.07953 11.6667 8.33333 10.9205 8.33333 10C8.33333 9.07953 9.07953 8.33333 10 8.33333C10.9205 8.33333 11.6667 9.07953 11.6667 10ZM14.1667 17.2167L13.3333 15.775M14.1667 2.78333L13.3333 4.225M1.66667 10H3.33333M17.2167 14.1667L15.775 13.3333M17.2167 5.83333L15.775 6.66667M2.78333 14.1667L4.225 13.3333M2.78333 5.83333L4.225 6.66667" stroke="var(--stroke-1, black)" stroke-opacity="0.2" stroke-width="1.66667" stroke-linecap="round" stroke-linejoin="round"/>
<path d="M9.16667 8.55833L5.83333 2.78333M9.16667 11.4417L5.83333 17.2167M10 18.3333V16.6667M10 16.6667C13.6819 16.6667 16.6667 13.6819 16.6667 10C16.6667 6.3181 13.6819 3.33333 10 3.33333M10 16.6667C6.3181 16.6667 3.33333 13.6819 3.33333 10M10 1.66667V3.33333M10 3.33333C6.3181 3.33333 3.33333 6.3181 3.33333 10M11.6667 10H18.3333M11.6667 10C11.6667 10.9205 10.9205 11.6667 10 11.6667C9.07953 11.6667 8.33333 10.9205 8.33333 10C8.33333 9.07953 9.07953 8.33333 10 8.33333C10.9205 8.33333 11.6667 9.07953 11.6667 10ZM14.1667 17.2167L13.3333 15.775M14.1667 2.78333L13.3333 4.225M1.66667 10H3.33333M17.2167 14.1667L15.775 13.3333M17.2167 5.83333L15.775 6.66667M2.78333 14.1667L4.225 13.3333M2.78333 5.83333L4.225 6.66667" stroke="var(--stroke-2, black)" stroke-opacity="0.2" stroke-width="1.66667" stroke-linecap="round" stroke-linejoin="round"/>
</g>
</g>
<defs>
<clipPath id="clip0_0_136">
<rect width="20" height="20" fill="white"/>
</clipPath>
</defs>
</svg>
