<svg preserveAspectRatio="none" width="100%" height="100%" overflow="visible" style="display: block;" viewBox="0 0 20 20" fill="none" xmlns="http://www.w3.org/2000/svg">
<g id="lucide/smartphone">
<g id="Vector">
<path d="M10 15H10.0083M5.83333 1.66667H14.1667C15.0871 1.66667 15.8333 2.41286 15.8333 3.33333V16.6667C15.8333 17.5871 15.0871 18.3333 14.1667 18.3333H5.83333C4.91286 18.3333 4.16667 17.5871 4.16667 16.6667V3.33333C4.16667 2.41286 4.91286 1.66667 5.83333 1.66667Z" stroke="var(--stroke-0, #484F62)" stroke-width="1.66667" stroke-linecap="round" stroke-linejoin="round"/>
<path d="M10 15H10.0083M5.83333 1.66667H14.1667C15.0871 1.66667 15.8333 2.41286 15.8333 3.33333V16.6667C15.8333 17.5871 15.0871 18.3333 14.1667 18.3333H5.83333C4.91286 18.3333 4.16667 17.5871 4.16667 16.6667V3.33333C4.16667 2.41286 4.91286 1.66667 5.83333 1.66667Z" stroke="var(--stroke-1, black)" stroke-opacity="0.2" stroke-width="1.66667" stroke-linecap="round" stroke-linejoin="round"/>
<path d="M10 15H10.0083M5.83333 1.66667H14.1667C15.0871 1.66667 15.8333 2.41286 15.8333 3.33333V16.6667C15.8333 17.5871 15.0871 18.3333 14.1667 18.3333H5.83333C4.91286 18.3333 4.16667 17.5871 4.16667 16.6667V3.33333C4.16667 2.41286 4.91286 1.66667 5.83333 1.66667Z" stroke="var(--stroke-2, black)" stroke-opacity="0.2" stroke-width="1.66667" stroke-linecap="round" stroke-linejoin="round"/>
</g>
</g>
</svg>
