<svg width="400" height="267" viewBox="0 0 400 267" fill="none" xmlns="http://www.w3.org/2000/svg"><g clip-path="url(#clip0_4308_542)"><rect width="400" height="267" rx="12" fill="#FAFAFA"/><path d="M88 133.5H154M154 74H141.843C125.545 74 112.334 87.2117 112.334 103.509M154 193H142.084C125.653 193 112.334 179.68 112.334 163.25M112.334 163.25V141.27C112.334 136.979 108.855 133.5 104.564 133.5C108.931 133.229 112.334 129.609 112.334 125.234V103.509M112.334 163.25V205C112.334 227.091 130.242 245 152.334 245H200M112.334 103.509V61.5C112.334 39.4086 130.242 21.5 152.334 21.5H204" stroke="#E8E9EA" stroke-width="1.5" stroke-dasharray="2 2"/><g filter="url(#f0)"><rect x="229" y="40" width="254" height="187" rx="8" fill="white"/><rect x="229.5" y="40.5" width="253" height="186" rx="7.5" stroke="#191F2F" stroke-opacity="0.1"/><circle cx="244" cy="55" r="3" fill="#191F2F" fill-opacity="0.1"/><rect x="336" y="52" width="39" height="6" rx="3" fill="#191F2F" fill-opacity="0.1"/><rect x="241" y="79" width="62" height="136" rx="6" fill="#F0F0F0"/><rect x="313" y="79" width="168" height="63" rx="6" fill="#F0F0F0"/><rect x="313" y="154" width="168" height="61" rx="6" fill="#F0F0F0"/></g><circle cx="332" cy="133" r="171.5" stroke="#191F2F" stroke-opacity="0.1"/><rect width="28" height="28" rx="6" transform="matrix(-1 0 0 1 174 119)" fill="white"/><rect x="-0.5" y="0.5" width="27" height="27" rx="5.5" transform="matrix(-1 0 0 1 173 119)" stroke="#191F2F" stroke-opacity="0.1"/><path d="M163.333 131.667V129.667C163.333 128.933 163.091 128.22 162.644 127.638C162.198 127.055 161.571 126.637 160.863 126.447C160.154 126.257 159.402 126.306 158.724 126.587C158.047 126.868 157.48 127.365 157.113 128M159.333 135.667C159.333 136.035 159.632 136.333 160 136.333C160.368 136.333 160.667 136.035 160.667 135.667C160.667 135.298 160.368 135 160 135C159.632 135 159.333 135.298 159.333 135.667ZM164.667 131.667H155.333C154.597 131.667 154 132.264 154 133V138.333C154 139.07 154.597 139.667 155.333 139.667H164.667C165.403 139.667 166 139.07 166 138.333V133C166 132.264 165.403 131.667 164.667 131.667Z" stroke="#E95353" stroke-width="1.333" stroke-linecap="round" stroke-linejoin="round"/><rect width="28" height="28" rx="6" transform="matrix(-1 0 0 1 182 179)" fill="white"/><rect x="-0.5" y="0.5" width="27" height="27" rx="5.5" transform="matrix(-1 0 0 1 181 179)" stroke="#191F2F" stroke-opacity="0.1"/><path d="M171.333 191.667V189.667C171.333 188.783 170.982 187.935 170.357 187.31C169.732 186.685 168.884 186.333 168 186.333C167.116 186.333 166.268 186.685 165.643 187.31C165.018 187.935 164.667 188.783 164.667 189.667V191.667M167.333 195.667C167.333 196.035 167.632 196.333 168 196.333C168.368 196.333 168.667 196.035 168.667 195.667C168.667 195.298 168.368 195 168 195C167.632 195 167.333 195.298 167.333 195.667ZM172.667 191.667H163.333C162.597 191.667 162 192.264 162 193V198.333C162 199.07 162.597 199.667 163.333 199.667H172.667C173.403 199.667 174 199.07 174 198.333V193C174 192.264 173.403 191.667 172.667 191.667Z" stroke="#484F62" stroke-width="1.333" stroke-linecap="round" stroke-linejoin="round"/><rect width="28" height="28" rx="6" transform="matrix(-1 0 0 1 182 59)" fill="white"/><rect x="-0.5" y="0.5" width="27" height="27" rx="5.5" transform="matrix(-1 0 0 1 181 59)" stroke="#191F2F" stroke-opacity="0.1"/><path d="M171.333 71.667V69.667C171.333 68.783 170.982 67.935 170.357 67.31C169.732 66.685 168.884 66.333 168 66.333C167.116 66.333 166.268 66.685 165.643 67.31C165.018 67.935 164.667 68.783 164.667 69.667V71.667M167.333 75.667C167.333 76.035 167.632 76.333 168 76.333C168.368 76.333 168.667 76.035 168.667 75.667C168.667 75.299 168.368 75 168 75C167.632 75 167.333 75.299 167.333 75.667ZM172.667 71.667H163.333C162.597 71.667 162 72.264 162 73V78.333C162 79.07 162.597 79.667 163.333 79.667H172.667C173.403 79.667 174 79.07 174 78.333V73C174 72.264 173.403 71.667 172.667 71.667Z" stroke="#484F62" stroke-width="1.333" stroke-linecap="round" stroke-linejoin="round"/><rect width="24" height="24" rx="6" transform="matrix(-1 0 0 1 218 9)" fill="white"/><rect x="-0.5" y="0.5" width="23" height="23" rx="5.5" transform="matrix(-1 0 0 1 217 9)" stroke="#191F2F" stroke-opacity="0.1"/><path d="M208.5 20V18.5C208.5 17.837 208.237 17.201 207.768 16.732C207.299 16.263 206.663 16 206 16C205.337 16 204.701 16.263 204.232 16.732C203.763 17.201 203.5 17.837 203.5 18.5V20M205.5 23C205.5 23.276 205.724 23.5 206 23.5C206.276 23.5 206.5 23.276 206.5 23C206.5 22.724 206.276 22.5 206 22.5C205.724 22.5 205.5 22.724 205.5 23ZM209.5 20H202.5C201.948 20 201.5 20.448 201.5 21V25C201.5 25.552 201.948 26 202.5 26H209.5C210.052 26 210.5 25.552 210.5 25V21C210.5 20.448 210.052 20 209.5 20Z" stroke="#484F62" stroke-linecap="round" stroke-linejoin="round"/><rect width="24" height="24" rx="6" transform="matrix(-1 0 0 1 218 233)" fill="white"/><rect x="-0.5" y="0.5" width="23" height="23" rx="5.5" transform="matrix(-1 0 0 1 217 233)" stroke="#191F2F" stroke-opacity="0.1"/><path d="M208.5 244V242.5C208.5 241.837 208.237 241.201 207.768 240.732C207.299 240.263 206.663 240 206 240C205.337 240 204.701 240.263 204.232 240.732C203.763 241.201 203.5 241.837 203.5 242.5V244M205.5 247C205.5 247.276 205.724 247.5 206 247.5C206.276 247.5 206.5 247.276 206.5 247C206.5 246.724 206.276 246.5 206 246.5C205.724 246.5 205.5 246.724 205.5 247ZM209.5 244H202.5C201.948 244 201.5 244.448 201.5 245V249C201.5 249.552 201.948 250 202.5 250H209.5C210.052 250 210.5 249.552 210.5 249V245C210.5 244.448 210.052 244 209.5 244Z" stroke="#484F62" stroke-linecap="round" stroke-linejoin="round"/><rect x="32" y="105" width="56" height="56" rx="28" fill="#FAFAFA"/><rect x="32.5" y="105.5" width="55" height="55" rx="27.5" stroke="#191F2F" stroke-opacity="0.1"/><g filter="url(#f1)"><rect x="38" y="111" width="44" height="44" rx="22" fill="white"/><rect x="38.5" y="111.5" width="43" height="43" rx="21.5" stroke="#191F2F" stroke-opacity="0.1"/><path d="M64.737 135.994C65.675 135.997 66.963 135.93 67.882 136.143C68.354 136.252 68.466 136.786 68.421 137.236C68.253 138.888 67.924 140.547 67.633 142.183C67.501 142.923 67.499 143.731 67.221 144.434C67.115 144.693 66.962 144.814 66.708 144.906C66.16 145.038 65.215 144.993 64.634 144.991L61.742 144.989L56.072 144.982C55.293 144.976 54.527 144.991 53.745 144.968C52.996 144.946 52.731 144.517 52.605 143.814C52.387 142.596 52.223 141.36 52.031 140.135C51.945 139.566 51.856 138.998 51.764 138.43C51.696 138.022 51.455 136.972 51.638 136.607C51.935 136.015 52.595 136.029 53.179 136.013C54.059 135.979 55.047 135.993 55.935 135.993L60.497 135.994H64.737ZM60.021 138.945C59.205 138.945 58.543 139.607 58.543 140.424C58.543 141.241 59.205 141.902 60.021 141.903C60.838 141.902 61.501 141.241 61.501 140.424C61.501 139.607 60.838 138.945 60.021 138.945ZM57.537 121.02C58.592 120.975 59.678 121.024 60.736 121.009C61.425 121 62.144 121.003 62.83 121.041C63.415 121.833 63.846 123.728 63.987 124.72C64.803 124.739 66.204 124.601 65.839 125.85C65.351 126.324 64.838 126.169 64.17 126.265C64.14 127.524 63.82 128.691 62.865 129.553C62.381 129.99 61.911 130.157 61.308 130.365C62.61 131.17 63.859 131.631 64.773 132.912C65.189 133.494 65.395 133.745 65.51 134.467C65.145 134.458 64.731 134.486 64.358 134.493C63.773 134.5 63.186 134.504 62.6 134.503L57.443 134.504C56.612 134.502 55.326 134.463 54.536 134.526C54.564 133.813 54.717 133.649 55.097 133.081C55.988 131.749 57.283 131.23 58.581 130.42C56.623 129.69 55.865 128.186 55.756 126.184C55.571 126.191 55.386 126.195 55.201 126.198C54.871 126.201 54.442 126.193 54.195 125.945C53.97 125.717 53.938 125.268 54.202 125.054C54.678 124.669 55.326 124.733 55.896 124.76C56.154 123.989 56.381 123.244 56.569 122.452C56.668 122.037 56.793 121.568 57.033 121.214C57.147 121.047 57.354 121.038 57.537 121.02ZM62.748 126.201C60.932 126.151 59.137 126.228 57.355 126.19C57.34 126.65 57.308 127.023 57.454 127.474C58.027 129.243 60.506 129.786 61.84 128.53C61.89 128.482 61.94 128.433 61.99 128.384C62.727 127.619 62.732 127.215 62.748 126.201Z" fill="#1C51C6"/></g></g><rect x="0.5" y="0.5" width="399" height="266" rx="11.5" stroke="#191F2F" stroke-opacity="0.1"/><defs><filter id="f0" x="209" y="36" width="294" height="235" filterUnits="userSpaceOnUse" color-interpolation-filters="sRGB"><feFlood flood-opacity="0" result="a"/><feColorMatrix in="SourceAlpha" values="0 0 0 0 0 0 0 0 0 0 0 0 0 0 0 0 0 0 127 0" result="h"/><feMorphology radius="4" operator="erode" in="SourceAlpha" result="e3"/><feOffset dy="8"/><feGaussianBlur stdDeviation="8"/><feComposite in2="h" operator="out"/><feColorMatrix values="0 0 0 0 0 0 0 0 0 0 0 0 0 0 0 0 0 0 0.03 0"/><feBlend in2="a" result="r"/><feBlend in="SourceGraphic" in2="r" result="shape"/></filter><filter id="f1" x="18" y="107" width="84" height="92" filterUnits="userSpaceOnUse" color-interpolation-filters="sRGB"><feFlood flood-opacity="0" result="a"/><feColorMatrix in="SourceAlpha" values="0 0 0 0 0 0 0 0 0 0 0 0 0 0 0 0 0 0 127 0" result="h"/><feMorphology radius="4" operator="erode" in="SourceAlpha" result="e3"/><feOffset dy="8"/><feGaussianBlur stdDeviation="8"/><feComposite in2="h" operator="out"/><feColorMatrix values="0 0 0 0 0 0 0 0 0 0 0 0 0 0 0 0 0 0 0.03 0"/><feBlend in2="a" result="r"/><feBlend in="SourceGraphic" in2="r" result="shape"/></filter><clipPath id="clip0_4308_542"><rect width="400" height="267" rx="12" fill="white"/></clipPath></defs></svg>
