<svg width="400" height="267" viewBox="0 0 400 267" fill="none" xmlns="http://www.w3.org/2000/svg"><g clip-path="url(#c0)"><rect width="400" height="267" rx="12" fill="#FAFAFA"/><circle cx="199.444" cy="244.444" r="89.691" stroke="#E8E9EA" stroke-width="1.507"/><circle cx="199.5" cy="244.5" r="40.746" stroke="#E8E9EA" stroke-width="1.507"/><g filter="url(#ff)"><circle cx="199.193" cy="244.193" r="39.193" fill="#191F2F" fill-opacity="0.15"/></g><circle cx="199.233" cy="244.233" r="148.48" stroke="#E8E9EA" stroke-width="1.507"/><circle cx="199.5" cy="244.5" r="202.746" stroke="#E8E9EA" stroke-width="1.507"/><g filter="url(#f1)"><path d="M286 68C292.627 68 298 73.373 298 80V118C298 124.627 292.627 130 286 130H56C49.373 130 44 124.627 44 118V78.285L32 68H286Z" fill="white"/><path d="M44 78.285H44.5V78.055L44.325 77.906L44 78.285ZM32 68V67.5H30.648L31.675 68.38L32 68ZM286 68.5C292.351 68.5 297.5 73.649 297.5 80H298.5C298.5 73.096 292.904 67.5 286 67.5V68.5ZM297.5 118C297.5 124.351 292.351 129.5 286 129.5V130.5C292.904 130.5 298.5 124.904 298.5 118H297.5ZM286 129.5H56V130.5H286V129.5ZM44.5 118V78.285H43.5V118H44.5ZM44.325 77.906L32.325 67.62L31.675 68.38L43.675 78.665L44.325 77.906ZM32 68.5H286V67.5H32V68.5ZM56 129.5C49.649 129.5 44.5 124.351 44.5 118H43.5C43.5 124.904 49.096 130.5 56 130.5V129.5Z" fill="#E8E9EA"/><rect x="64" y="84" width="215" height="6" rx="3" fill="#E8E9EA"/><rect x="64" y="96" width="194" height="6" rx="3" fill="#E8E9EA"/><rect x="64" y="108" width="88" height="6" rx="3" fill="#E8E9EA"/></g><rect x="20" y="56" width="44" height="44" rx="22" fill="white"/><rect x="20.5" y="56.5" width="43" height="43" rx="21.5" stroke="#191F2F" stroke-opacity="0.1"/><path d="M50.502 83.705C50.502 85.847 48.766 87.583 46.624 87.583C44.486 87.583 42.75 85.847 42.75 83.705C42.75 83.537 42.76 83.371 42.784 83.209C45.506 83.178 48.104 83.003 50.37 82.699C50.455 83.02 50.502 83.357 50.502 83.705Z" fill="#DBDBDB"/><path d="M41.25 83.705C41.25 85.847 39.514 87.583 37.376 87.583C35.234 87.583 33.498 85.847 33.498 83.705C33.498 83.357 33.545 83.02 33.63 82.699C35.896 83.003 38.494 83.178 41.216 83.209C41.24 83.371 41.25 83.537 41.25 83.705Z" fill="#DBDBDB"/><path d="M57.2 78.669C57.2 80.432 50.394 81.861 42 81.861C33.606 81.861 26.8 80.432 26.8 78.669C26.8 77.554 29.523 76.575 33.65 76.007C34.339 73.758 35.123 71.711 36.065 70.019C36.92 68.488 38.859 67.962 40.372 68.847C40.385 68.857 40.399 68.867 40.416 68.874C41.392 69.451 42.608 69.451 43.584 68.874C43.601 68.867 43.615 68.857 43.628 68.847C45.141 67.962 47.08 68.488 47.935 70.019C48.877 71.711 49.661 73.758 50.35 76.007C54.478 76.575 57.2 77.554 57.2 78.669Z" fill="#DBDBDB"/><g filter="url(#f2)"><path d="M114 150C107.373 150 102 155.373 102 162V188C102 194.627 107.373 200 114 200H344C350.627 200 356 194.627 356 188V160.285L368 150H114Z" fill="white"/><path d="M356 160.285H355.5V160.055L355.675 159.906L356 160.285ZM368 149.5H369.352L368.325 150.38L368 150ZM114 150.5C107.649 150.5 102.5 155.649 102.5 162H101.5C101.5 155.096 107.096 149.5 114 149.5V150.5ZM102.5 188C102.5 194.351 107.649 199.5 114 199.5V200.5C107.096 200.5 101.5 194.904 101.5 188H102.5ZM114 199.5H344V200.5H114V199.5ZM355.5 188V160.285H356.5V188H355.5ZM355.675 159.906L367.675 149.62L368.325 150.38L356.325 160.665L355.675 159.906ZM368 150.5H114V149.5H368V150.5ZM344 199.5C350.351 199.5 355.5 194.351 355.5 188H356.5C356.5 194.904 350.904 200.5 344 200.5V199.5Z" fill="#E8E9EA"/><rect width="206" height="6" rx="3" transform="matrix(-1 0 0 1 327 166)" fill="#E8E9EA"/><rect width="194" height="6" rx="3" transform="matrix(-1 0 0 1 315 178)" fill="#E8E9EA"/></g><rect x="336" y="138" width="44" height="44" rx="22" fill="white"/><rect x="336.5" y="138.5" width="43" height="43" rx="21.5" stroke="#191F2F" stroke-opacity="0.1"/><path d="M352.458 154.167C352.458 151.111 354.944 148.625 358 148.625C361.055 148.625 363.542 151.111 363.542 154.167C363.542 157.222 361.055 159.708 358 159.708C354.944 159.708 352.458 157.222 352.458 154.167ZM361.5 161.458H354.5C350.802 161.458 347.792 164.468 347.792 168.167C347.792 169.936 349.23 171.375 351 171.375H365C366.77 171.375 368.208 169.936 368.208 168.167C368.208 164.468 365.198 161.458 361.5 161.458Z" fill="#DBDBDB"/><path d="M120.411 205.338L102.825 174.251C102.442 173.568 101.885 172.999 101.214 172.604C100.542 172.208 99.778 172 99 172C98.222 172 97.459 172.208 96.787 172.604C96.115 172.999 95.559 173.568 95.175 174.251L77.589 205.338C77.202 206.016 76.998 206.786 77 207.569C77.002 208.352 77.208 209.12 77.599 209.797C77.99 210.473 78.55 211.033 79.224 211.42C79.898 211.807 80.661 212.007 81.436 212H116.608C117.379 211.999 118.137 211.793 118.805 211.403C119.472 211.013 120.027 210.452 120.412 209.777C120.797 209.102 121 208.337 121 207.558C121 206.779 120.797 206.013 120.411 205.338Z" fill="white" stroke="#1C51C6" stroke-linecap="round" stroke-linejoin="round"/><rect x="97" y="184" width="4" height="16" rx="2" fill="#1C51C6"/><circle cx="99" cy="204" r="2" fill="#1C51C6"/></g><rect x="0.5" y="0.5" width="399" height="266" rx="11.5" stroke="#191F2F" stroke-opacity="0.1"/><defs><filter id="ff" x="-66" y="-21" width="531" height="531" filterUnits="userSpaceOnUse" color-interpolation-filters="sRGB"><feFlood flood-opacity="0" result="a"/><feBlend in="SourceGraphic" in2="a" result="s"/><feGaussianBlur stdDeviation="113" result="b"/></filter><filter id="f1" x="11" y="63.5" width="308" height="111" filterUnits="userSpaceOnUse" color-interpolation-filters="sRGB"><feFlood flood-opacity="0" result="a"/><feColorMatrix in="SourceAlpha" values="0 0 0 0 0 0 0 0 0 0 0 0 0 0 0 0 0 0 127 0" result="h"/><feMorphology radius="4" operator="erode" in="SourceAlpha" result="e"/><feOffset dy="8"/><feGaussianBlur stdDeviation="8"/><feComposite in2="h" operator="out"/><feColorMatrix values="0 0 0 0 0 0 0 0 0 0 0 0 0 0 0 0 0 0 0.03 0"/><feBlend in2="a" result="r"/><feBlend in="SourceGraphic" in2="r" result="shape"/></filter><filter id="f2" x="82" y="145.5" width="308" height="111" filterUnits="userSpaceOnUse" color-interpolation-filters="sRGB"><feFlood flood-opacity="0" result="a"/><feColorMatrix in="SourceAlpha" values="0 0 0 0 0 0 0 0 0 0 0 0 0 0 0 0 0 0 127 0" result="h"/><feMorphology radius="4" operator="erode" in="SourceAlpha" result="e"/><feOffset dy="8"/><feGaussianBlur stdDeviation="8"/><feComposite in2="h" operator="out"/><feColorMatrix values="0 0 0 0 0 0 0 0 0 0 0 0 0 0 0 0 0 0 0.03 0"/><feBlend in2="a" result="r"/><feBlend in="SourceGraphic" in2="r" result="shape"/></filter><clipPath id="c0"><rect width="400" height="267" rx="12" fill="white"/></clipPath></defs></svg>
