<svg width="400" height="267" viewBox="0 0 400 267" fill="none" xmlns="http://www.w3.org/2000/svg"><g clip-path="url(#c0)"><rect width="400" height="267" rx="12" fill="#FAFAFA"/><circle cx="199.444" cy="244.444" r="89.691" stroke="#E8E9EA" stroke-width="1.507"/><circle cx="199.5" cy="244.5" r="40.746" stroke="#E8E9EA" stroke-width="1.507"/><circle cx="199.233" cy="244.233" r="148.48" stroke="#E8E9EA" stroke-width="1.507"/><circle cx="199.5" cy="244.5" r="202.746" stroke="#E8E9EA" stroke-width="1.507"/><g filter="url(#f0)"><rect x="73" y="35" width="254" height="40" rx="8" fill="white"/><rect x="73.5" y="35.5" width="253" height="39" rx="7.5" stroke="#191F2F" stroke-opacity="0.1"/><circle cx="306" cy="56" r="5" fill="#1C51C6" filter="url(#fd)"/></g><g filter="url(#f1)"><rect x="73" y="87" width="254" height="40" rx="8" fill="white"/><rect x="73.5" y="87.5" width="253" height="39" rx="7.5" stroke="#191F2F" stroke-opacity="0.1"/><circle cx="306" cy="108" r="5" fill="#1C51C6" filter="url(#fd)"/></g><g filter="url(#f2)"><rect x="73" y="139" width="254" height="40" rx="8" fill="white"/><rect x="73.5" y="139.5" width="253" height="39" rx="7.5" stroke="#191F2F" stroke-opacity="0.1"/><circle cx="306" cy="160" r="5" fill="#1C51C6" filter="url(#fd)"/></g><g filter="url(#f3)"><rect x="73" y="191" width="254" height="40" rx="8" fill="white"/><rect x="73.5" y="191.5" width="253" height="39" rx="7.5" stroke="#191F2F" stroke-opacity="0.1"/><circle cx="306" cy="212" r="5" fill="#1C51C6" filter="url(#fd)"/></g><line x1="201" y1="16" x2="201" y2="251" stroke="url(#lg)" stroke-width="2"/><rect x="73" y="35" width="127" height="196" fill="url(#lr)"/><rect x="178" y="112" width="44" height="44" rx="22" fill="white"/><rect x="178.5" y="112.5" width="43" height="43" rx="21.5" stroke="#191F2F" stroke-opacity="0.1"/><rect x="184" y="118" width="32" height="32" rx="16" fill="#1C51C6"/><path d="M208 128.761V126L200 130.554V131.924L192 127.391V130.151L200 134.685V135.58L192 131.049V133.81L200 138.341V139.239L192 134.685V137.443L200 142V140.609L208 136.076V133.315L200 137.849V136.974L208 132.417V129.659L200 134.19V133.315L208 128.761Z" fill="white"/></g><rect x="0.5" y="0.5" width="399" height="266" rx="11.5" stroke="#191F2F" stroke-opacity="0.1"/><defs><filter id="fd" filterUnits="userSpaceOnUse" color-interpolation-filters="sRGB"><feGaussianBlur stdDeviation="2"/></filter><filter id="f0" x="53" y="31" width="294" height="88" filterUnits="userSpaceOnUse" color-interpolation-filters="sRGB"><feFlood flood-opacity="0" result="a"/><feColorMatrix in="SourceAlpha" values="0 0 0 0 0 0 0 0 0 0 0 0 0 0 0 0 0 0 127 0" result="h"/><feMorphology radius="4" operator="erode" in="SourceAlpha" result="e"/><feOffset dy="8"/><feGaussianBlur stdDeviation="8"/><feComposite in2="h" operator="out"/><feColorMatrix values="0 0 0 0 0 0 0 0 0 0 0 0 0 0 0 0 0 0 0.03 0"/><feBlend in2="a" result="r"/><feBlend in="SourceGraphic" in2="r" result="shape"/></filter><filter id="f1" x="53" y="83" width="294" height="88" filterUnits="userSpaceOnUse" color-interpolation-filters="sRGB"><feFlood flood-opacity="0" result="a"/><feColorMatrix in="SourceAlpha" values="0 0 0 0 0 0 0 0 0 0 0 0 0 0 0 0 0 0 127 0" result="h"/><feMorphology radius="4" operator="erode" in="SourceAlpha" result="e"/><feOffset dy="8"/><feGaussianBlur stdDeviation="8"/><feComposite in2="h" operator="out"/><feColorMatrix values="0 0 0 0 0 0 0 0 0 0 0 0 0 0 0 0 0 0 0.03 0"/><feBlend in2="a" result="r"/><feBlend in="SourceGraphic" in2="r" result="shape"/></filter><filter id="f2" x="53" y="135" width="294" height="88" filterUnits="userSpaceOnUse" color-interpolation-filters="sRGB"><feFlood flood-opacity="0" result="a"/><feColorMatrix in="SourceAlpha" values="0 0 0 0 0 0 0 0 0 0 0 0 0 0 0 0 0 0 127 0" result="h"/><feMorphology radius="4" operator="erode" in="SourceAlpha" result="e"/><feOffset dy="8"/><feGaussianBlur stdDeviation="8"/><feComposite in2="h" operator="out"/><feColorMatrix values="0 0 0 0 0 0 0 0 0 0 0 0 0 0 0 0 0 0 0.03 0"/><feBlend in2="a" result="r"/><feBlend in="SourceGraphic" in2="r" result="shape"/></filter><filter id="f3" x="53" y="187" width="294" height="88" filterUnits="userSpaceOnUse" color-interpolation-filters="sRGB"><feFlood flood-opacity="0" result="a"/><feColorMatrix in="SourceAlpha" values="0 0 0 0 0 0 0 0 0 0 0 0 0 0 0 0 0 0 127 0" result="h"/><feMorphology radius="4" operator="erode" in="SourceAlpha" result="e"/><feOffset dy="8"/><feGaussianBlur stdDeviation="8"/><feComposite in2="h" operator="out"/><feColorMatrix values="0 0 0 0 0 0 0 0 0 0 0 0 0 0 0 0 0 0 0.03 0"/><feBlend in2="a" result="r"/><feBlend in="SourceGraphic" in2="r" result="shape"/></filter><linearGradient id="lg" x1="199.5" y1="16" x2="199.5" y2="251" gradientUnits="userSpaceOnUse"><stop stop-color="#0054FF" stop-opacity="0"/><stop offset="0.077" stop-color="#0054FF"/><stop offset="0.832" stop-color="#0054FF"/><stop offset="1" stop-color="#0054FF" stop-opacity="0"/></linearGradient><linearGradient id="lr" x1="73" y1="133" x2="200" y2="133" gradientUnits="userSpaceOnUse"><stop stop-color="#D9D9D9" stop-opacity="0"/><stop offset="1" stop-color="#0054FF" stop-opacity="0.2"/></linearGradient><clipPath id="c0"><rect width="400" height="267" rx="12" fill="white"/></clipPath></defs></svg>
