<svg width="400" height="267" viewBox="0 0 400 267" fill="none" xmlns="http://www.w3.org/2000/svg">
<g clip-path="url(#clip0_4308_614)">
<rect width="400" height="267" rx="12" fill="#FAFAFA"/>
<circle cx="199.444" cy="244.444" r="89.6907" stroke="#191F2F" stroke-opacity="0.1" stroke-width="1.50741"/>
<circle cx="199.5" cy="244.5" r="40.7463" stroke="#191F2F" stroke-opacity="0.1" stroke-width="1.50741"/>
<g filter="url(#filter0_f_4308_614)">
<circle cx="199.193" cy="244.193" r="39.1926" fill="#0054FF" fill-opacity="0.5"/>
</g>
<circle cx="199.233" cy="244.233" r="148.48" stroke="#191F2F" stroke-opacity="0.1" stroke-width="1.50741"/>
<circle cx="199.5" cy="244.5" r="202.746" stroke="#191F2F" stroke-opacity="0.1" stroke-width="1.50741"/>
<rect x="83.0438" y="30" width="234" height="410" rx="32" fill="#FAFAFA"/>
<rect x="83.9416" y="30.8978" width="232.204" height="408.204" rx="31.1022" stroke="#191F2F" stroke-opacity="0.1" stroke-width="1.79562"/>
<g filter="url(#filter1_ddd_4308_614)">
<rect x="95.0438" y="42" width="210" height="386" rx="24" fill="white" shape-rendering="crispEdges"/>
<rect x="95.9416" y="42.8978" width="208.204" height="384.204" rx="23.1022" stroke="#191F2F" stroke-opacity="0.1" stroke-width="1.79562" shape-rendering="crispEdges"/>
<rect x="165.044" y="56" width="70" height="10" rx="5" fill="#191F2F" fill-opacity="0.1"/>
<rect x="130.544" y="98.5" width="139" height="139" rx="69.5" stroke="#191F2F" stroke-opacity="0.1"/>
<line x1="200.5" y1="88" x2="200.5" y2="248" stroke="#191F2F" stroke-opacity="0.1"/>
<line x1="120" y1="167.5" x2="280" y2="167.5" stroke="#191F2F" stroke-opacity="0.1"/>
<rect x="178.044" y="146" width="44" height="44" rx="22" fill="#EBF1FC"/>
<rect x="178.544" y="146.5" width="43" height="43" rx="21.5" stroke="#191F2F" stroke-opacity="0.1"/>
<path d="M200.044 176V167M200.044 176C201.635 176 203.161 175.368 204.286 174.243C205.412 173.117 206.044 171.591 206.044 170V167C206.044 165.939 205.622 164.922 204.872 164.172C204.122 163.421 203.105 163 202.044 163H198.044C196.983 163 195.966 163.421 195.215 164.172C194.465 164.922 194.044 165.939 194.044 167V170C194.044 171.591 194.676 173.117 195.801 174.243C196.926 175.368 198.452 176 200.044 176ZM202.164 159.88L204.044 158M209.044 177C209.045 175.971 208.65 174.982 207.94 174.237C207.231 173.492 206.261 173.049 205.234 173M209.044 161C209.043 161.982 208.68 162.93 208.026 163.662C207.371 164.394 206.47 164.86 205.494 164.97M210.044 169H206.044M191.044 177C191.043 175.971 191.438 174.982 192.147 174.237C192.857 173.492 193.826 173.049 194.854 173M191.044 161C191.045 161.982 191.407 162.93 192.062 163.662C192.717 164.394 193.618 164.86 194.594 164.97M194.044 169H190.044M196.044 158L197.924 159.88M197.044 163.13V162C197.044 161.204 197.36 160.441 197.922 159.879C198.485 159.316 199.248 159 200.044 159C200.839 159 201.603 159.316 202.165 159.879C202.728 160.441 203.044 161.204 203.044 162V163.13" stroke="#1C51C6" stroke-width="2" stroke-linecap="round" stroke-linejoin="round"/>
</g>
</g>
<rect x="0.5" y="0.5" width="399" height="266" rx="11.5" stroke="#191F2F" stroke-opacity="0.1"/>
<defs>
<filter id="filter0_f_4308_614" x="-66.111" y="-21.1111" width="530.607" height="530.607" filterUnits="userSpaceOnUse" color-interpolation-filters="sRGB">
<feFlood flood-opacity="0" result="BackgroundImageFix"/>
<feBlend mode="normal" in="SourceGraphic" in2="BackgroundImageFix" result="shape"/>
<feGaussianBlur stdDeviation="113.056" result="effect1_foregroundBlur_4308_614"/>
</filter>
<filter id="filter1_ddd_4308_614" x="59.1314" y="34.8175" width="281.825" height="472.19" filterUnits="userSpaceOnUse" color-interpolation-filters="sRGB">
<feFlood flood-opacity="0" result="BackgroundImageFix"/>
<feColorMatrix in="SourceAlpha" type="matrix" values="0 0 0 0 0 0 0 0 0 0 0 0 0 0 0 0 0 0 127 0" result="hardAlpha"/>
<feMorphology radius="21.5474" operator="erode" in="SourceAlpha" result="effect1_dropShadow_4308_614"/>
<feOffset dy="43.0949"/>
<feGaussianBlur stdDeviation="28.7299"/>
<feComposite in2="hardAlpha" operator="out"/>
<feColorMatrix type="matrix" values="0 0 0 0 0 0 0 0 0 0 0 0 0 0 0 0 0 0 0.01 0"/>
<feBlend mode="normal" in2="BackgroundImageFix" result="effect1_dropShadow_4308_614"/>
<feColorMatrix in="SourceAlpha" type="matrix" values="0 0 0 0 0 0 0 0 0 0 0 0 0 0 0 0 0 0 127 0" result="hardAlpha"/>
<feMorphology radius="14.365" operator="erode" in="SourceAlpha" result="effect2_dropShadow_4308_614"/>
<feOffset dy="28.7299"/>
<feGaussianBlur stdDeviation="21.5474"/>
<feComposite in2="hardAlpha" operator="out"/>
<feColorMatrix type="matrix" values="0 0 0 0 0 0 0 0 0 0 0 0 0 0 0 0 0 0 0.03 0"/>
<feBlend mode="normal" in2="effect1_dropShadow_4308_614" result="effect2_dropShadow_4308_614"/>
<feColorMatrix in="SourceAlpha" type="matrix" values="0 0 0 0 0 0 0 0 0 0 0 0 0 0 0 0 0 0 127 0" result="hardAlpha"/>
<feMorphology radius="7.18248" operator="erode" in="SourceAlpha" result="effect3_dropShadow_4308_614"/>
<feOffset dy="14.365"/>
<feGaussianBlur stdDeviation="14.365"/>
<feComposite in2="hardAlpha" operator="out"/>
<feColorMatrix type="matrix" values="0 0 0 0 0 0 0 0 0 0 0 0 0 0 0 0 0 0 0.03 0"/>
<feBlend mode="normal" in2="effect2_dropShadow_4308_614" result="effect3_dropShadow_4308_614"/>
<feBlend mode="normal" in="SourceGraphic" in2="effect3_dropShadow_4308_614" result="shape"/>
</filter>
<clipPath id="clip0_4308_614">
<rect width="400" height="267" rx="12" fill="white"/>
</clipPath>
</defs>
</svg>