<svg width="400" height="267" viewBox="0 0 400 267" fill="none" xmlns="http://www.w3.org/2000/svg"><g clip-path="url(#c0)"><rect width="400" height="267" rx="12" fill="#FAFAFA"/><circle cx="200.444" cy="133.944" r="89.691" stroke="#E8E9EA" stroke-width="1.507"/><circle cx="200.5" cy="134" r="40.746" stroke="#E8E9EA" stroke-width="1.507"/><g filter="url(#f0)"><circle cx="200.193" cy="133.693" r="39.193" fill="#0054FF" fill-opacity="0.5"/></g><circle cx="200.233" cy="133.733" r="148.48" stroke="#E8E9EA" stroke-width="1.507"/><circle cx="200.5" cy="134" r="202.746" stroke="#E8E9EA" stroke-width="1.507"/><g filter="url(#f1)"><path d="M275.277 117.513C272.237 117.513 269.202 117.816 266.223 118.419C263.976 107.2 256.712 97.63 246.514 92.45C236.317 87.27 224.308 87.053 213.928 91.859C204.535 65.974 175.946 52.61 150.073 62.007C124.199 71.404 110.841 100.008 120.234 125.891C97.569 126.608 79.666 145.376 80.005 168.059C80.346 190.744 98.805 208.963 121.482 209H275.277C300.527 209 321 188.52 321 163.256C321 137.993 300.527 117.513 275.277 117.513Z" fill="white"/><path d="M150.329 62.712C175.813 53.456 203.972 66.62 213.224 92.115L213.502 92.884L214.243 92.54C224.414 87.83 236.182 88.043 246.174 93.119C256.168 98.195 263.286 107.572 265.487 118.565L265.635 119.303L266.372 119.153C269.302 118.56 272.287 118.263 275.277 118.263C300.113 118.263 320.25 138.407 320.25 163.257C320.25 188.106 300.113 208.25 275.277 208.25H121.483C99.216 208.214 81.09 190.324 80.755 168.048C80.422 145.774 98.002 127.345 120.257 126.641L121.292 126.607L120.938 125.635C111.687 100.141 124.845 71.968 150.329 62.712Z" stroke="#191F2F" stroke-opacity="0.1" stroke-width="1.5"/></g><g filter="url(#f2)"><rect x="270" y="154" width="50" height="50" rx="25" fill="white"/><rect x="272" y="156" width="46" height="46" rx="23" stroke="#1C51C6" stroke-width="4"/><path d="M295 185.667V178.167M295 185.667C296.326 185.667 297.598 185.14 298.536 184.202C299.473 183.265 300 181.993 300 180.667V178.167C300 177.283 299.649 176.435 299.024 175.81C298.399 175.185 297.551 174.833 296.667 174.833H293.333C292.449 174.833 291.601 175.185 290.976 175.81C290.351 176.435 290 177.283 290 178.167V180.667C290 181.993 290.527 183.265 291.464 184.202C292.402 185.14 293.674 185.667 295 185.667ZM296.767 172.233L298.333 170.667M302.5 186.5C302.501 185.643 302.172 184.818 301.58 184.197C300.989 183.576 300.181 183.207 299.325 183.167M302.5 173.167C302.499 173.985 302.197 174.775 301.651 175.385C301.106 175.995 300.355 176.383 299.542 176.475M303.333 179.833H300M287.5 186.5C287.499 185.643 287.828 184.818 288.42 184.197C289.011 183.576 289.819 183.207 290.675 183.167M287.5 173.167C287.501 173.985 287.803 174.775 288.349 175.385C288.894 175.995 289.645 176.383 290.458 176.475M290 179.833H286.667M291.667 170.667L293.233 172.233M292.5 174.942V174C292.5 173.337 292.763 172.701 293.232 172.232C293.701 171.763 294.337 171.5 295 171.5C295.663 171.5 296.299 171.763 296.768 172.232C297.237 172.701 297.5 173.337 297.5 174V174.942" stroke="#1C51C6" stroke-width="2" stroke-linecap="round" stroke-linejoin="round"/></g><line x1="313.869" y1="195.343" x2="327.658" y2="206.913" stroke="#1C51C6" stroke-width="8" stroke-linecap="round"/></g><rect x="0.5" y="0.5" width="399" height="266" rx="11.5" stroke="#191F2F" stroke-opacity="0.1"/><defs><filter id="f0" x="-65" y="-132" width="531" height="531" filterUnits="userSpaceOnUse" color-interpolation-filters="sRGB"><feFlood flood-opacity="0" result="a"/><feBlend in="SourceGraphic" in2="a" result="s"/><feGaussianBlur stdDeviation="113" result="b"/></filter><filter id="f1" x="60" y="55" width="281" height="198" filterUnits="userSpaceOnUse" color-interpolation-filters="sRGB"><feFlood flood-opacity="0" result="a"/><feColorMatrix in="SourceAlpha" values="0 0 0 0 0 0 0 0 0 0 0 0 0 0 0 0 0 0 127 0" result="h"/><feMorphology radius="4" operator="erode" in="SourceAlpha" result="e"/><feOffset dy="8"/><feGaussianBlur stdDeviation="8"/><feComposite in2="h" operator="out"/><feColorMatrix values="0 0 0 0 0 0 0 0 0 0 0 0 0 0 0 0 0 0 0.03 0"/><feBlend in2="a" result="r"/><feBlend in="SourceGraphic" in2="r" result="shape"/></filter><filter id="f2" x="250" y="150" width="90" height="98" filterUnits="userSpaceOnUse" color-interpolation-filters="sRGB"><feFlood flood-opacity="0" result="a"/><feColorMatrix in="SourceAlpha" values="0 0 0 0 0 0 0 0 0 0 0 0 0 0 0 0 0 0 127 0" result="h"/><feMorphology radius="4" operator="erode" in="SourceAlpha" result="e"/><feOffset dy="8"/><feGaussianBlur stdDeviation="8"/><feComposite in2="h" operator="out"/><feColorMatrix values="0 0 0 0 0 0 0 0 0 0 0 0 0 0 0 0 0 0 0.03 0"/><feBlend in2="a" result="r"/><feBlend in="SourceGraphic" in2="r" result="shape"/></filter><clipPath id="c0"><rect width="400" height="267" rx="12" fill="white"/></clipPath></defs></svg>
