<svg preserveAspectRatio="none" width="100%" height="100%" overflow="visible" style="display: block;" viewBox="0 0 24 24" fill="none" xmlns="http://www.w3.org/2000/svg">
<g id="_image 1">
<path id="Vector" d="M12.62 0.552057V6.52925L19.1612 0.664857V7.43165H21.8684V17.2441H19.1612V23.3341L12.62 17.6953V23.4469H11.3792V17.8081L4.83797 23.3341V17.2441H2.13077V7.43285H4.83797V0.664857L11.3792 6.52925V0.552057H12.62ZM6.07878 3.48486V7.43165H10.364L6.07878 3.48486ZM17.9204 7.43285V3.48486L13.6352 7.43165H17.9204V7.43285ZM10.364 8.67245H3.37157V15.8341C3.73037 16.1725 4.36997 15.9385 4.83797 16.0033V13.6909L10.364 8.67245ZM20.6276 8.67245H13.748L19.1612 13.6909V16.0033C19.6292 15.9385 20.2688 16.1725 20.6276 15.8341V8.67245ZM11.3792 9.57485L11.0396 9.74285L6.07758 14.2549V20.5141C6.34998 20.4601 6.65598 20.1865 6.86838 20.0077C8.41278 18.7129 9.86478 17.2789 11.378 15.9457V9.57365L11.3792 9.57485ZM12.62 9.57485V15.9469L17.9204 20.5141V14.2549L12.9584 9.74285L12.6188 9.57485H12.62Z" fill="var(--fill-0, #303030)"/>
</g>
</svg>
