<svg preserveAspectRatio="none" width="100%" height="100%" overflow="visible" style="display: block;" viewBox="0 0 24 24" fill="none" xmlns="http://www.w3.org/2000/svg">
<g id="_image (2) 1" clip-path="url(#clip0_0_1186)">
<path id="Vector" d="M23.0099 11.2698C18.354 10.0152 14.1099 6.21124 12.9239 1.48157C12.5976 0.179065 11.5528 -0.845071 11.1566 1.01417C10.5571 3.83152 8.81179 6.30576 6.6276 8.13783C5.50765 9.07648 4.25564 9.86368 2.91817 10.4554C2.28375 10.7363 -0.919426 11.2763 0.257493 12.325C0.530682 12.5697 0.900974 12.6655 1.25314 12.7678C6.00742 14.1544 9.76863 18.1384 11.1501 22.8628C11.2329 23.1477 11.3158 23.4468 11.523 23.6591C11.9257 24.0721 12.3853 23.8054 12.538 23.3406C13.3861 20.7512 14.3857 18.5565 16.3459 16.5704C18.2233 14.6697 20.5913 13.2429 23.1756 12.5477C23.5122 12.4571 23.9227 12.2965 23.9408 11.9495C23.9564 11.6427 23.6339 11.4265 23.3336 11.354C23.2248 11.3281 23.1174 11.2996 23.0086 11.2711L23.0099 11.2698Z" fill="var(--fill-0, #303030)"/>
</g>
<defs>
<clipPath id="clip0_0_1186">
<rect width="24" height="24" fill="white"/>
</clipPath>
</defs>
</svg>
