<svg preserveAspectRatio="none" width="100%" height="100%" overflow="visible" style="display: block;" viewBox="0 0 24 24" fill="none" xmlns="http://www.w3.org/2000/svg">
<g id="_image (1) 1">
<path id="Vector" d="M12.7084 15.126C12.7084 15.126 11.9103 16.6127 9.94115 16.6127C8.82755 16.6127 8.04152 16.6164 6.75512 16.6356C6.58472 16.638 5.70273 16.2132 5.54913 16.2156C4.77273 16.2276 4.17873 16.6847 4.17873 16.6847C4.17873 16.6847 6.02435 16.7207 6.51635 19.2612C7.00835 21.8028 8.41112 22.4471 9.31715 22.4471C11.2012 22.4471 11.3692 20.5343 12.7095 15.1247L12.7084 15.126Z" fill="var(--fill-0, #191F2F)" fill-opacity="0.7"/>
<path id="Vector_2" d="M11.2946 8.87391C11.2946 8.87391 12.0927 7.38714 14.0618 7.38714C15.1754 7.38714 15.9615 7.38351 17.2479 7.36431C17.4183 7.36191 18.3002 7.78671 18.4538 7.78431C19.2303 7.77231 19.8242 7.31514 19.8242 7.31514C19.8242 7.31514 17.9786 7.27914 17.4866 4.73874C16.9946 2.19714 15.5919 1.55274 14.6858 1.55274C12.8018 1.55274 12.6338 3.46554 11.2935 8.87514L11.2946 8.87391Z" fill="var(--fill-0, #191F2F)" fill-opacity="0.7"/>
<path id="Vector_3" d="M9.2698 22.4472C9.2698 22.4472 10.8274 22.5948 12.0274 17.838C14.0038 9.9984 13.9054 7.3584 17.503 7.3584C22.021 7.3584 23.911 6.57723 23.3338 11.67C22.6234 17.9364 20.005 22.4868 17.779 22.4484C15.4666 22.4088 9.2698 22.4484 9.2698 22.4484V22.4472Z" fill="var(--fill-0, #303030)"/>
<path id="Vector_4" d="M14.7298 1.55275C14.7298 1.55275 13.1722 1.40515 11.9722 6.16197C9.99582 14.0015 10.0942 16.6415 6.49663 16.6415C1.97861 16.6415 0.0886074 17.4228 0.665807 12.33C1.37501 6.06357 3.99341 1.51315 6.2194 1.55155C8.53183 1.59115 14.7286 1.55155 14.7286 1.55155L14.7298 1.55275Z" fill="var(--fill-0, #303030)"/>
</g>
</svg>
