<svg preserveAspectRatio="none" width="100%" height="100%" overflow="visible" style="display: block;" viewBox="0 0 16 16" fill="none" xmlns="http://www.w3.org/2000/svg">
<g id="lucide/form">
<path id="Vector" d="M2.66667 9.33333H6.66667M2.66667 1.33333H9.33333M3.33333 12H12.6667C13.0349 12 13.3333 12.2985 13.3333 12.6667V14C13.3333 14.3682 13.0349 14.6667 12.6667 14.6667H3.33333C2.96514 14.6667 2.66667 14.3682 2.66667 14V12.6667C2.66667 12.2985 2.96514 12 3.33333 12ZM3.33333 4H12.6667C13.0349 4 13.3333 4.29848 13.3333 4.66667V6C13.3333 6.36819 13.0349 6.66667 12.6667 6.66667H3.33333C2.96514 6.66667 2.66667 6.36819 2.66667 6V4.66667C2.66667 4.29848 2.96514 4 3.33333 4Z" stroke="#303030" stroke-width="1.33333" stroke-linecap="round" stroke-linejoin="round"/>
</g>
</svg>
