<svg preserveAspectRatio="none" width="100%" height="100%" overflow="visible" style="display: block;" viewBox="0 0 16 10.9091" fill="none" xmlns="http://www.w3.org/2000/svg">
<g id="icon">
<path id="Vector" d="M0.81543 0.501953C1.05431 0.504551 1.30731 0.507593 1.54492 0.503906V0.504883C1.54807 0.50492 1.55155 0.503871 1.55469 0.503906C1.55631 0.50388 1.55795 0.50491 1.55957 0.504883L1.55859 0.503906C2.01521 0.508899 2.37588 0.489899 2.76758 0.524414C3.1693 0.559862 3.45322 0.750487 3.70801 1.05762C3.98313 1.38931 4.18288 1.80086 4.44141 2.26953L4.44238 2.27051L5.53418 4.23828V4.23926L7.41113 7.60156L7.41504 7.6084C7.9533 8.5364 8.48248 9.46973 9.00391 10.4072H6.89258C6.69865 10.4074 6.53026 10.4107 6.37891 10.4023C6.36714 10.3837 6.35112 10.3613 6.33398 10.3301C6.30757 10.2819 6.25985 10.1895 6.20996 10.1104C6.11849 9.96529 6.0362 9.80701 5.94727 9.63184C5.90438 9.54736 5.85905 9.45721 5.81152 9.36523L5.66113 9.08789L3.02344 4.45801L1.19141 1.24609H1.19238C1.15882 1.18589 1.09031 1.06959 1.01563 0.942383C0.937971 0.810131 0.84744 0.654732 0.761719 0.501953L0.760742 0.500977C0.778781 0.501153 0.797256 0.501756 0.81543 0.501953Z" stroke="#303030"/>
<path id="Vector_2" d="M14.9455 0.899406C14.9146 0.953745 14.8797 1.00941 14.8371 1.07714C14.7967 1.14123 14.7488 1.21685 14.7043 1.29589H14.7033L13.1945 3.98437C12.9124 4.47539 12.6161 4.97637 12.3351 5.48632C12.1234 5.87063 11.8127 6.34293 11.5998 6.833C11.57 6.90148 11.5193 6.98545 11.4445 7.10351C11.4116 7.15548 11.3729 7.21711 11.3332 7.28222L11.2277 7.46776C11.1279 7.64966 11.0216 7.83521 10.9172 8.01269L10.7121 7.6455L10.7111 7.64355L10.5002 7.28222C10.4387 7.1765 10.3848 7.07886 10.338 6.96972C10.3027 6.88727 10.2626 6.80887 10.2257 6.74218L10.2228 6.7373L9.85465 6.08593H9.85367L9.67301 5.75585C9.66081 5.72758 9.65292 5.69749 9.65055 5.66698V5.66405C9.65049 5.66171 9.65037 5.63468 9.68473 5.56151C9.70285 5.52294 9.72594 5.48091 9.75602 5.42773C9.78309 5.37987 9.82103 5.31417 9.85367 5.25097C9.91267 5.13675 9.98101 5.02273 10.0568 4.89648C10.13 4.77446 10.2116 4.63721 10.2873 4.49804L10.2882 4.49901L11.383 2.50097L11.3849 2.49901C11.5514 2.19132 11.7231 1.88644 11.9005 1.58495L11.9025 1.583C12.0609 1.31081 12.1225 1.17162 12.256 1.02245C12.4485 0.807691 12.5834 0.702862 12.7111 0.640616C12.8377 0.578975 12.9972 0.538517 13.2716 0.516593C13.3845 0.510612 13.5172 0.51029 13.6388 0.512687C14.0372 0.520532 14.4425 0.513277 14.8312 0.508781C14.9449 0.507466 15.0575 0.507239 15.1691 0.506827C15.0962 0.633921 15.0221 0.76427 14.9455 0.899406Z" stroke="#303030"/>
</g>
</svg>
