<svg preserveAspectRatio="none" width="100%" height="100%" overflow="visible" style="display: block;" viewBox="0 0 16 16" fill="none" xmlns="http://www.w3.org/2000/svg">
<g id="lucide/newspaper" clip-path="url(#clip0_0_11)">
<g id="Vector">
<path d="M10 12H6.66667M12 9.33333H6.66667M2.66667 14.6667H13.3333C13.687 14.6667 14.0261 14.5262 14.2761 14.2761C14.5262 14.0261 14.6667 13.687 14.6667 13.3333V2.66667C14.6667 2.31304 14.5262 1.97391 14.2761 1.72386C14.0261 1.47381 13.687 1.33333 13.3333 1.33333H5.33333C4.97971 1.33333 4.64057 1.47381 4.39052 1.72386C4.14048 1.97391 4 2.31304 4 2.66667V13.3333C4 13.687 3.85952 14.0261 3.60948 14.2761C3.35943 14.5262 3.02029 14.6667 2.66667 14.6667ZM2.66667 14.6667C2.31304 14.6667 1.97391 14.5262 1.72386 14.2761C1.47381 14.0261 1.33333 13.687 1.33333 13.3333V7.33333C1.33333 6.97971 1.47381 6.64057 1.72386 6.39052C1.97391 6.14048 2.31304 6 2.66667 6H4M7.33333 4H11.3333C11.7015 4 12 4.29848 12 4.66667V6C12 6.36819 11.7015 6.66667 11.3333 6.66667H7.33333C6.96514 6.66667 6.66667 6.36819 6.66667 6V4.66667C6.66667 4.29848 6.96514 4 7.33333 4Z" stroke="currentColor" stroke-width="1.33333" stroke-linecap="round" stroke-linejoin="round"/>
<path d="M10 12H6.66667M12 9.33333H6.66667M2.66667 14.6667H13.3333C13.687 14.6667 14.0261 14.5262 14.2761 14.2761C14.5262 14.0261 14.6667 13.687 14.6667 13.3333V2.66667C14.6667 2.31304 14.5262 1.97391 14.2761 1.72386C14.0261 1.47381 13.687 1.33333 13.3333 1.33333H5.33333C4.97971 1.33333 4.64057 1.47381 4.39052 1.72386C4.14048 1.97391 4 2.31304 4 2.66667V13.3333C4 13.687 3.85952 14.0261 3.60948 14.2761C3.35943 14.5262 3.02029 14.6667 2.66667 14.6667ZM2.66667 14.6667C2.31304 14.6667 1.97391 14.5262 1.72386 14.2761C1.47381 14.0261 1.33333 13.687 1.33333 13.3333V7.33333C1.33333 6.97971 1.47381 6.64057 1.72386 6.39052C1.97391 6.14048 2.31304 6 2.66667 6H4M7.33333 4H11.3333C11.7015 4 12 4.29848 12 4.66667V6C12 6.36819 11.7015 6.66667 11.3333 6.66667H7.33333C6.96514 6.66667 6.66667 6.36819 6.66667 6V4.66667C6.66667 4.29848 6.96514 4 7.33333 4Z" stroke="currentColor" stroke-opacity="0.2" stroke-width="1.33333" stroke-linecap="round" stroke-linejoin="round"/>
<path d="M10 12H6.66667M12 9.33333H6.66667M2.66667 14.6667H13.3333C13.687 14.6667 14.0261 14.5262 14.2761 14.2761C14.5262 14.0261 14.6667 13.687 14.6667 13.3333V2.66667C14.6667 2.31304 14.5262 1.97391 14.2761 1.72386C14.0261 1.47381 13.687 1.33333 13.3333 1.33333H5.33333C4.97971 1.33333 4.64057 1.47381 4.39052 1.72386C4.14048 1.97391 4 2.31304 4 2.66667V13.3333C4 13.687 3.85952 14.0261 3.60948 14.2761C3.35943 14.5262 3.02029 14.6667 2.66667 14.6667ZM2.66667 14.6667C2.31304 14.6667 1.97391 14.5262 1.72386 14.2761C1.47381 14.0261 1.33333 13.687 1.33333 13.3333V7.33333C1.33333 6.97971 1.47381 6.64057 1.72386 6.39052C1.97391 6.14048 2.31304 6 2.66667 6H4M7.33333 4H11.3333C11.7015 4 12 4.29848 12 4.66667V6C12 6.36819 11.7015 6.66667 11.3333 6.66667H7.33333C6.96514 6.66667 6.66667 6.36819 6.66667 6V4.66667C6.66667 4.29848 6.96514 4 7.33333 4Z" stroke="currentColor" stroke-opacity="0.2" stroke-width="1.33333" stroke-linecap="round" stroke-linejoin="round"/>
</g>
</g>
<defs>
<clipPath id="clip0_0_11">
<rect width="16" height="16" fill="white"/>
</clipPath>
</defs>
</svg>
