<svg preserveAspectRatio="none" width="100%" height="100%" overflow="visible" style="display: block;" viewBox="0 0 16 16" fill="none" xmlns="http://www.w3.org/2000/svg">
<g id="lucide/hat-glasses">
<path id="Vector" d="M8.57467 12C8.57467 11.6464 8.75005 11.2501 8.50001 11C8.24996 10.75 8.35362 10.6667 8 10.6667C7.64638 10.6667 7.75005 10.8071 7.50001 11.0572C7.24996 11.3072 7.50001 11.6464 7.50001 12M8.57467 12C8.57467 13.1046 10.2288 14 11.3333 14C12.4379 14 13.3333 13.1046 13.3333 12C13.3333 10.8954 12.4379 10 11.3333 10C10.2288 10 8.57467 10.8954 8.57467 12ZM7.50001 12C7.50001 13.1046 5.77124 14 4.66667 14C3.5621 14 2.66667 13.1046 2.66667 12C2.66667 10.8954 3.5621 10 4.66667 10C5.77124 10 7.50001 10.8954 7.50001 12ZM12.6667 7.33333L11.26 2.89533C11.1984 2.71809 11.1001 2.55584 10.9716 2.4192C10.843 2.28255 10.687 2.17457 10.5138 2.10234C10.3407 2.0301 10.1542 1.99522 9.96663 1.99999C9.77906 2.00476 9.59461 2.04906 9.42533 2.13L8.57467 2.53667C8.3952 2.62231 8.19885 2.66673 8 2.66667H5.66667C5.37623 2.66661 5.09371 2.76139 4.86207 2.93659C4.63043 3.1118 4.46233 3.35785 4.38333 3.63733L3.33333 7.33333M1.33333 7.33333H14.6667" stroke="#303030" stroke-width="1.33333" stroke-linecap="round" stroke-linejoin="round"/>
</g>
</svg>
