<svg width="16" height="11" viewBox="0 0 16 11" fill="none" xmlns="http://www.w3.org/2000/svg">
<path d="M0.81543 0.501953C1.05431 0.504551 1.30731 0.507593 1.54492 0.503906V0.504883C1.54807 0.50492 1.55155 0.503871 1.55469 0.503906C1.55631 0.50388 1.55795 0.50491 1.55957 0.504883L1.55859 0.503906C2.01521 0.508899 2.37588 0.489899 2.76758 0.524414C3.1693 0.559862 3.45322 0.750487 3.70801 1.05762C3.98313 1.38931 4.18289 1.80086 4.44141 2.26953L4.44238 2.27051L5.53418 4.23828V4.23926L7.41113 7.60156L7.41504 7.6084C7.9533 8.5364 8.48248 9.46973 9.00391 10.4072H6.89258C6.69865 10.4074 6.53026 10.4107 6.37891 10.4023C6.36714 10.3837 6.35112 10.3613 6.33398 10.3301C6.30757 10.2819 6.25985 10.1895 6.20996 10.1104C6.11849 9.96529 6.0362 9.80701 5.94727 9.63184C5.90438 9.54736 5.85905 9.45721 5.81152 9.36523L5.66113 9.08789L3.02344 4.45801L1.19141 1.24609H1.19238C1.15882 1.18589 1.09031 1.06959 1.01562 0.942383C0.937971 0.810131 0.84744 0.654732 0.761719 0.501953L0.760742 0.500977C0.778781 0.501153 0.797256 0.501756 0.81543 0.501953Z" stroke="#303030"/>
<path d="M14.9455 0.899414C14.9147 0.953754 14.8797 1.00942 14.8371 1.07715C14.7968 1.14124 14.7488 1.21685 14.7043 1.2959H14.7033L13.1945 3.98438C12.9124 4.4754 12.6161 4.97638 12.3351 5.48633C12.1234 5.87063 11.8127 6.34294 11.5998 6.83301C11.57 6.90149 11.5193 6.98546 11.4445 7.10352C11.4116 7.15549 11.3729 7.21712 11.3332 7.28223L11.2277 7.46777C11.128 7.64967 11.0216 7.83522 10.9172 8.0127L10.7121 7.64551L10.7111 7.64355L10.5002 7.28223C10.4387 7.17651 10.3849 7.07887 10.3381 6.96973C10.3027 6.88727 10.2627 6.80888 10.2258 6.74219L10.2228 6.7373L9.85468 6.08594H9.8537L9.67303 5.75586C9.66083 5.72759 9.65294 5.6975 9.65057 5.66699V5.66406C9.65052 5.66172 9.6504 5.63469 9.68475 5.56152C9.70288 5.52294 9.72596 5.48091 9.75604 5.42773C9.78311 5.37988 9.82105 5.31418 9.8537 5.25098C9.9127 5.13676 9.98104 5.02274 10.0568 4.89648C10.1301 4.77447 10.2116 4.63721 10.2873 4.49805L10.2883 4.49902L11.383 2.50098L11.3849 2.49902C11.5514 2.19133 11.7231 1.88645 11.9006 1.58496L11.9025 1.58301C12.0609 1.31082 12.1225 1.17163 12.256 1.02246C12.4485 0.8077 12.5834 0.702871 12.7111 0.640625C12.8378 0.578983 12.9972 0.538526 13.2717 0.516602C13.3845 0.510621 13.5172 0.510299 13.6389 0.512695C14.0372 0.520541 14.4425 0.513286 14.8312 0.508789C14.9449 0.507475 15.0575 0.507247 15.1691 0.506836C15.0962 0.63393 15.0222 0.764278 14.9455 0.899414Z" stroke="#303030"/>
</svg>
